<svg width="24" height="24" viewBox="0 0 24 24" fill="none" xmlns="http://www.w3.org/2000/svg">
<path d="M12 0C5.376 0 0 5.376 0 12C0 18.624 5.376 24 12 24C18.624 24 24 18.624 24 12C24 5.376 18.624 0 12 0ZM12 21.6C6.708 21.6 2.4 17.292 2.4 12C2.4 6.708 6.708 2.4 12 2.4C17.292 2.4 21.6 6.708 21.6 12C21.6 17.292 17.292 21.6 12 21.6ZM17.004 15.312L15.684 13.992C16.536 12.396 16.32 10.38 14.976 9.036C14.5865 8.64324 14.1228 8.33174 13.6119 8.11957C13.1011 7.90739 12.5532 7.79877 12 7.8C11.964 7.8 11.928 7.812 11.892 7.812L13.2 9.12L11.928 10.392L8.532 6.996L11.928 3.6L13.2 4.872L12.048 6.024C13.572 6.036 15.084 6.6 16.248 7.752C18.288 9.804 18.54 12.984 17.004 15.312ZM15.468 17.004L12.072 20.4L10.8 19.128L11.94 17.988C10.3718 17.9758 8.87151 17.3463 7.764 16.236C6.78725 15.2582 6.17752 13.9735 6.03762 12.5986C5.89772 11.2236 6.2362 9.84247 6.996 8.688L8.316 10.008C7.464 11.604 7.68 13.62 9.024 14.964C9.864 15.804 10.98 16.212 12.096 16.176L10.8 14.88L12.072 13.608L15.468 17.004Z" fill="white"/>
</svg>
