<svg width="25" height="25" viewBox="0 0 25 25" fill="none" xmlns="http://www.w3.org/2000/svg">
<path d="M12.3696 21.3696C14.7565 21.3696 17.0457 20.4214 18.7335 18.7336C20.4214 17.0458 21.3696 14.7566 21.3696 12.3696C21.3696 9.98268 20.4214 7.6935 18.7335 6.00567C17.0457 4.31784 14.7565 3.36963 12.3696 3.36963C9.98262 3.36963 7.69343 4.31784 6.00561 6.00567C4.31778 7.6935 3.36957 9.98268 3.36957 12.3696C3.36957 14.7566 4.31778 17.0458 6.00561 18.7336C7.69343 20.4214 9.98262 21.3696 12.3696 21.3696Z" stroke="white" stroke-width="2" stroke-linecap="round" stroke-linejoin="round"/>
<path d="M13.3696 12.3696C13.9 12.3696 14.4087 12.5803 14.7838 12.9554C15.1589 13.3305 15.3696 13.8392 15.3696 14.3696C15.3696 14.9001 15.1589 15.4088 14.7838 15.7838C14.4087 16.1589 13.9 16.3696 13.3696 16.3696H10.3696V12.3696M13.3696 12.3696H10.3696M13.3696 12.3696C13.9 12.3696 14.4087 12.1589 14.7838 11.7838C15.1589 11.4088 15.3696 10.9001 15.3696 10.3696C15.3696 9.8392 15.1589 9.33049 14.7838 8.95542C14.4087 8.58034 13.9 8.36963 13.3696 8.36963H10.3696V12.3696" stroke="white" stroke-width="2" stroke-linecap="round" stroke-linejoin="round"/>
</svg>
