<svg width="590" height="320" viewBox="0 0 590 320" fill="none" xmlns="http://www.w3.org/2000/svg">
<path d="M10.88 9.04V11.3H7.16V23H4.36V11.3H0.64V9.04H10.88ZM17.843 23.18C16.7763 23.18 15.8163 22.9467 14.963 22.48C14.1096 22 13.4363 21.3267 12.943 20.46C12.463 19.5933 12.223 18.5933 12.223 17.46C12.223 16.3267 12.4696 15.3267 12.963 14.46C13.4696 13.5933 14.1563 12.9267 15.023 12.46C15.8896 11.98 16.8563 11.74 17.923 11.74C18.9896 11.74 19.9563 11.98 20.823 12.46C21.6896 12.9267 22.3696 13.5933 22.863 14.46C23.3696 15.3267 23.623 16.3267 23.623 17.46C23.623 18.5933 23.363 19.5933 22.843 20.46C22.3363 21.3267 21.643 22 20.763 22.48C19.8963 22.9467 18.923 23.18 17.843 23.18ZM17.843 20.74C18.3496 20.74 18.823 20.62 19.263 20.38C19.7163 20.1267 20.0763 19.7533 20.343 19.26C20.6096 18.7667 20.743 18.1667 20.743 17.46C20.743 16.4067 20.463 15.6 19.903 15.04C19.3563 14.4667 18.683 14.18 17.883 14.18C17.083 14.18 16.4096 14.4667 15.863 15.04C15.3296 15.6 15.063 16.4067 15.063 17.46C15.063 18.5133 15.323 19.3267 15.843 19.9C16.3763 20.46 17.043 20.74 17.843 20.74ZM28.9369 14.22V19.58C28.9369 19.9533 29.0235 20.2267 29.1969 20.4C29.3835 20.56 29.6902 20.64 30.1169 20.64H31.4169V23H29.6569C27.2969 23 26.1169 21.8533 26.1169 19.56V14.22H24.7969V11.92H26.1169V9.18H28.9369V11.92H31.4169V14.22H28.9369ZM32.7108 17.42C32.7108 16.3 32.9308 15.3067 33.3708 14.44C33.8241 13.5733 34.4308 12.9067 35.1908 12.44C35.9641 11.9733 36.8241 11.74 37.7708 11.74C38.5974 11.74 39.3174 11.9067 39.9308 12.24C40.5574 12.5733 41.0574 12.9933 41.4308 13.5V11.92H44.2508V23H41.4308V21.38C41.0708 21.9 40.5708 22.3333 39.9308 22.68C39.3041 23.0133 38.5774 23.18 37.7508 23.18C36.8174 23.18 35.9641 22.94 35.1908 22.46C34.4308 21.98 33.8241 21.3067 33.3708 20.44C32.9308 19.56 32.7108 18.5533 32.7108 17.42ZM41.4308 17.46C41.4308 16.78 41.2974 16.2 41.0308 15.72C40.7641 15.2267 40.4041 14.8533 39.9508 14.6C39.4974 14.3333 39.0108 14.2 38.4908 14.2C37.9708 14.2 37.4908 14.3267 37.0508 14.58C36.6108 14.8333 36.2508 15.2067 35.9708 15.7C35.7041 16.18 35.5708 16.7533 35.5708 17.42C35.5708 18.0867 35.7041 18.6733 35.9708 19.18C36.2508 19.6733 36.6108 20.0533 37.0508 20.32C37.5041 20.5867 37.9841 20.72 38.4908 20.72C39.0108 20.72 39.4974 20.5933 39.9508 20.34C40.4041 20.0733 40.7641 19.7 41.0308 19.22C41.2974 18.7267 41.4308 18.14 41.4308 17.46ZM49.7855 8.2V23H46.9855V8.2H49.7855ZM68.8975 9.04V23H66.0975V17.06H60.1175V23H57.3175V9.04H60.1175V14.78H66.0975V9.04H68.8975ZM78.8534 23L75.7734 17.56H74.4534V23H71.6534V9.04H76.8934C77.9734 9.04 78.8934 9.23333 79.6534 9.62C80.4134 9.99333 80.9801 10.5067 81.3534 11.16C81.7401 11.8 81.9334 12.52 81.9334 13.32C81.9334 14.24 81.6668 15.0733 81.1334 15.82C80.6001 16.5533 79.8068 17.06 78.7534 17.34L82.0934 23H78.8534ZM74.4534 15.46H76.7934C77.5534 15.46 78.1201 15.28 78.4934 14.92C78.8668 14.5467 79.0534 14.0333 79.0534 13.38C79.0534 12.74 78.8668 12.2467 78.4934 11.9C78.1201 11.54 77.5534 11.36 76.7934 11.36H74.4534V15.46ZM88.5116 17.42C88.5116 16.3 88.7316 15.3067 89.1716 14.44C89.6249 13.5733 90.2316 12.9067 90.9916 12.44C91.7649 11.9733 92.6249 11.74 93.5716 11.74C94.3982 11.74 95.1182 11.9067 95.7316 12.24C96.3582 12.5733 96.8582 12.9933 97.2316 13.5V11.92H100.052V23H97.2316V21.38C96.8716 21.9 96.3716 22.3333 95.7316 22.68C95.1049 23.0133 94.3782 23.18 93.5516 23.18C92.6182 23.18 91.7649 22.94 90.9916 22.46C90.2316 21.98 89.6249 21.3067 89.1716 20.44C88.7316 19.56 88.5116 18.5533 88.5116 17.42ZM97.2316 17.46C97.2316 16.78 97.0982 16.2 96.8316 15.72C96.5649 15.2267 96.2049 14.8533 95.7516 14.6C95.2982 14.3333 94.8116 14.2 94.2916 14.2C93.7716 14.2 93.2916 14.3267 92.8516 14.58C92.4116 14.8333 92.0516 15.2067 91.7716 15.7C91.5049 16.18 91.3716 16.7533 91.3716 17.42C91.3716 18.0867 91.5049 18.6733 91.7716 19.18C92.0516 19.6733 92.4116 20.0533 92.8516 20.32C93.3049 20.5867 93.7849 20.72 94.2916 20.72C94.8116 20.72 95.2982 20.5933 95.7516 20.34C96.2049 20.0733 96.5649 19.7 96.8316 19.22C97.0982 18.7267 97.2316 18.14 97.2316 17.46ZM108.926 11.76C110.246 11.76 111.313 12.18 112.126 13.02C112.94 13.8467 113.346 15.0067 113.346 16.5V23H110.546V16.88C110.546 16 110.326 15.3267 109.886 14.86C109.446 14.38 108.846 14.14 108.086 14.14C107.313 14.14 106.7 14.38 106.246 14.86C105.806 15.3267 105.586 16 105.586 16.88V23H102.786V11.92H105.586V13.3C105.96 12.82 106.433 12.4467 107.006 12.18C107.593 11.9 108.233 11.76 108.926 11.76ZM115.289 17.42C115.289 16.3 115.509 15.3067 115.949 14.44C116.402 13.5733 117.016 12.9067 117.789 12.44C118.562 11.9733 119.422 11.74 120.369 11.74C121.089 11.74 121.776 11.9 122.429 12.22C123.082 12.5267 123.602 12.94 123.989 13.46V8.2H126.829V23H123.989V21.36C123.642 21.9067 123.156 22.3467 122.529 22.68C121.902 23.0133 121.176 23.18 120.349 23.18C119.416 23.18 118.562 22.94 117.789 22.46C117.016 21.98 116.402 21.3067 115.949 20.44C115.509 19.56 115.289 18.5533 115.289 17.42ZM124.009 17.46C124.009 16.78 123.876 16.2 123.609 15.72C123.342 15.2267 122.982 14.8533 122.529 14.6C122.076 14.3333 121.589 14.2 121.069 14.2C120.549 14.2 120.069 14.3267 119.629 14.58C119.189 14.8333 118.829 15.2067 118.549 15.7C118.282 16.18 118.149 16.7533 118.149 17.42C118.149 18.0867 118.282 18.6733 118.549 19.18C118.829 19.6733 119.189 20.0533 119.629 20.32C120.082 20.5867 120.562 20.72 121.069 20.72C121.589 20.72 122.076 20.5933 122.529 20.34C122.982 20.0733 123.342 19.7 123.609 19.22C123.876 18.7267 124.009 18.14 124.009 17.46ZM144.509 13.36C144.509 14.1067 144.329 14.8067 143.969 15.46C143.623 16.1133 143.069 16.64 142.309 17.04C141.563 17.44 140.616 17.64 139.469 17.64H137.129V23H134.329V9.04H139.469C140.549 9.04 141.469 9.22667 142.229 9.6C142.989 9.97333 143.556 10.4867 143.929 11.14C144.316 11.7933 144.509 12.5333 144.509 13.36ZM139.349 15.38C140.123 15.38 140.696 15.2067 141.069 14.86C141.443 14.5 141.629 14 141.629 13.36C141.629 12 140.869 11.32 139.349 11.32H137.129V15.38H139.349ZM145.777 17.42C145.777 16.3 145.997 15.3067 146.437 14.44C146.891 13.5733 147.497 12.9067 148.257 12.44C149.031 11.9733 149.891 11.74 150.837 11.74C151.664 11.74 152.384 11.9067 152.997 12.24C153.624 12.5733 154.124 12.9933 154.497 13.5V11.92H157.317V23H154.497V21.38C154.137 21.9 153.637 22.3333 152.997 22.68C152.371 23.0133 151.644 23.18 150.817 23.18C149.884 23.18 149.031 22.94 148.257 22.46C147.497 21.98 146.891 21.3067 146.437 20.44C145.997 19.56 145.777 18.5533 145.777 17.42ZM154.497 17.46C154.497 16.78 154.364 16.2 154.097 15.72C153.831 15.2267 153.471 14.8533 153.017 14.6C152.564 14.3333 152.077 14.2 151.557 14.2C151.037 14.2 150.557 14.3267 150.117 14.58C149.677 14.8333 149.317 15.2067 149.037 15.7C148.771 16.18 148.637 16.7533 148.637 17.42C148.637 18.0867 148.771 18.6733 149.037 19.18C149.317 19.6733 149.677 20.0533 150.117 20.32C150.571 20.5867 151.051 20.72 151.557 20.72C152.077 20.72 152.564 20.5933 153.017 20.34C153.471 20.0733 153.831 19.7 154.097 19.22C154.364 18.7267 154.497 18.14 154.497 17.46ZM170.652 11.92L163.792 28.24H160.812L163.212 22.72L158.772 11.92H161.912L164.772 19.66L167.672 11.92H170.652ZM174.961 13.64C175.321 13.0533 175.788 12.5933 176.361 12.26C176.948 11.9267 177.615 11.76 178.361 11.76V14.7H177.621C176.741 14.7 176.075 14.9067 175.621 15.32C175.181 15.7333 174.961 16.4533 174.961 17.48V23H172.161V11.92H174.961V13.64ZM185.167 23.18C184.101 23.18 183.141 22.9467 182.287 22.48C181.434 22 180.761 21.3267 180.267 20.46C179.787 19.5933 179.547 18.5933 179.547 17.46C179.547 16.3267 179.794 15.3267 180.287 14.46C180.794 13.5933 181.481 12.9267 182.347 12.46C183.214 11.98 184.181 11.74 185.247 11.74C186.314 11.74 187.281 11.98 188.147 12.46C189.014 12.9267 189.694 13.5933 190.187 14.46C190.694 15.3267 190.947 16.3267 190.947 17.46C190.947 18.5933 190.687 19.5933 190.167 20.46C189.661 21.3267 188.967 22 188.087 22.48C187.221 22.9467 186.247 23.18 185.167 23.18ZM185.167 20.74C185.674 20.74 186.147 20.62 186.587 20.38C187.041 20.1267 187.401 19.7533 187.667 19.26C187.934 18.7667 188.067 18.1667 188.067 17.46C188.067 16.4067 187.787 15.6 187.227 15.04C186.681 14.4667 186.007 14.18 185.207 14.18C184.407 14.18 183.734 14.4667 183.187 15.04C182.654 15.6 182.387 16.4067 182.387 17.46C182.387 18.5133 182.647 19.3267 183.167 19.9C183.701 20.46 184.367 20.74 185.167 20.74ZM195.801 8.2V23H193.001V8.2H195.801ZM201.368 8.2V23H198.568V8.2H201.368ZM208.374 23.18C207.467 23.18 206.654 23.02 205.934 22.7C205.214 22.3667 204.641 21.92 204.214 21.36C203.801 20.8 203.574 20.18 203.534 19.5H206.354C206.407 19.9267 206.614 20.28 206.974 20.56C207.347 20.84 207.807 20.98 208.354 20.98C208.887 20.98 209.301 20.8733 209.594 20.66C209.901 20.4467 210.054 20.1733 210.054 19.84C210.054 19.48 209.867 19.2133 209.494 19.04C209.134 18.8533 208.554 18.6533 207.754 18.44C206.927 18.24 206.247 18.0333 205.714 17.82C205.194 17.6067 204.741 17.28 204.354 16.84C203.981 16.4 203.794 15.8067 203.794 15.06C203.794 14.4467 203.967 13.8867 204.314 13.38C204.674 12.8733 205.181 12.4733 205.834 12.18C206.501 11.8867 207.281 11.74 208.174 11.74C209.494 11.74 210.547 12.0733 211.334 12.74C212.121 13.3933 212.554 14.28 212.634 15.4H209.954C209.914 14.96 209.727 14.6133 209.394 14.36C209.074 14.0933 208.641 13.96 208.094 13.96C207.587 13.96 207.194 14.0533 206.914 14.24C206.647 14.4267 206.514 14.6867 206.514 15.02C206.514 15.3933 206.701 15.68 207.074 15.88C207.447 16.0667 208.027 16.26 208.814 16.46C209.614 16.66 210.274 16.8667 210.794 17.08C211.314 17.2933 211.761 17.6267 212.134 18.08C212.521 18.52 212.721 19.1067 212.734 19.84C212.734 20.48 212.554 21.0533 212.194 21.56C211.847 22.0667 211.341 22.4667 210.674 22.76C210.021 23.04 209.254 23.18 208.374 23.18Z" fill="#05004E"/>
<path d="M232.664 315.018H231.668V310.981H227.168V315.018H226.172V306.452H227.168V310.102H231.668V306.452H232.664V315.018ZM237.334 306.452C238.037 306.452 238.617 306.54 239.074 306.715C239.535 306.887 239.879 307.151 240.105 307.506C240.332 307.862 240.445 308.315 240.445 308.866C240.445 309.319 240.363 309.698 240.199 310.002C240.035 310.303 239.82 310.547 239.555 310.735C239.289 310.922 239.006 311.067 238.705 311.168L241.055 315.018H239.895L237.797 311.444H236.016V315.018H235.02V306.452H237.334ZM237.275 307.313H236.016V310.6H237.375C238.074 310.6 238.588 310.458 238.916 310.172C239.248 309.887 239.414 309.467 239.414 308.913C239.414 308.331 239.238 307.918 238.887 307.676C238.539 307.434 238.002 307.313 237.275 307.313Z" fill="#222B45"/>
<rect x="208" y="304.168" width="11" height="11.8248" rx="5.5" fill="#0095FF"/>
<path d="M354.41 306.452C355.516 306.452 356.322 306.668 356.83 307.102C357.342 307.532 357.598 308.149 357.598 308.954C357.598 309.317 357.537 309.663 357.416 309.991C357.299 310.315 357.107 310.602 356.842 310.852C356.576 311.098 356.227 311.293 355.793 311.438C355.363 311.579 354.836 311.649 354.211 311.649H353.168V315.018H352.172V306.452H354.41ZM354.316 307.301H353.168V310.793H354.1C354.646 310.793 355.102 310.735 355.465 310.618C355.832 310.5 356.107 310.311 356.291 310.049C356.475 309.784 356.566 309.432 356.566 308.995C356.566 308.424 356.385 308 356.021 307.723C355.658 307.442 355.09 307.301 354.316 307.301ZM361.646 308.491C362.412 308.491 362.98 308.663 363.352 309.006C363.723 309.35 363.908 309.899 363.908 310.653V315.018H363.199L363.012 314.069H362.965C362.785 314.303 362.598 314.5 362.402 314.661C362.207 314.817 361.98 314.936 361.723 315.018C361.469 315.096 361.156 315.135 360.785 315.135C360.395 315.135 360.047 315.067 359.742 314.93C359.441 314.793 359.203 314.586 359.027 314.309C358.855 314.032 358.77 313.68 358.77 313.254C358.77 312.614 359.023 312.122 359.531 311.778C360.039 311.434 360.812 311.247 361.852 311.215L362.959 311.168V310.776C362.959 310.221 362.84 309.833 362.602 309.61C362.363 309.387 362.027 309.276 361.594 309.276C361.258 309.276 360.938 309.325 360.633 309.422C360.328 309.52 360.039 309.635 359.766 309.768L359.467 309.03C359.756 308.881 360.088 308.754 360.463 308.649C360.838 308.543 361.232 308.491 361.646 308.491ZM362.947 311.854L361.969 311.895C361.168 311.926 360.604 312.057 360.275 312.288C359.947 312.518 359.783 312.844 359.783 313.266C359.783 313.633 359.895 313.905 360.117 314.081C360.34 314.256 360.635 314.344 361.002 314.344C361.572 314.344 362.039 314.186 362.402 313.87C362.766 313.553 362.947 313.079 362.947 312.446V311.854ZM364.898 308.596H365.941L367.359 312.323C367.441 312.542 367.518 312.752 367.588 312.956C367.658 313.155 367.721 313.346 367.775 313.53C367.83 313.713 367.873 313.891 367.904 314.063H367.945C368 313.868 368.078 313.612 368.18 313.295C368.281 312.975 368.391 312.649 368.508 312.317L369.85 308.596H370.898L368.104 315.961C367.955 316.356 367.781 316.7 367.582 316.993C367.387 317.286 367.148 317.51 366.867 317.667C366.586 317.827 366.246 317.907 365.848 317.907C365.664 317.907 365.502 317.895 365.361 317.872C365.221 317.852 365.1 317.829 364.998 317.801V317.022C365.084 317.042 365.188 317.059 365.309 317.075C365.434 317.09 365.562 317.098 365.695 317.098C365.938 317.098 366.146 317.051 366.322 316.958C366.502 316.868 366.656 316.735 366.785 316.559C366.914 316.383 367.025 316.174 367.119 315.932L367.471 315.03L364.898 308.596ZM374.842 308.479C374.971 308.479 375.105 308.487 375.246 308.502C375.387 308.514 375.512 308.532 375.621 308.555L375.498 309.458C375.393 309.43 375.275 309.409 375.146 309.393C375.018 309.377 374.896 309.37 374.783 309.37C374.525 309.37 374.281 309.422 374.051 309.528C373.824 309.629 373.625 309.778 373.453 309.973C373.281 310.165 373.146 310.397 373.049 310.67C372.951 310.94 372.902 311.241 372.902 311.573V315.018H371.924V308.596H372.732L372.838 309.78H372.879C373.012 309.542 373.172 309.325 373.359 309.129C373.547 308.93 373.764 308.772 374.01 308.655C374.26 308.538 374.537 308.479 374.842 308.479ZM382.371 311.795C382.371 312.323 382.303 312.793 382.166 313.208C382.029 313.622 381.832 313.971 381.574 314.256C381.316 314.542 381.004 314.76 380.637 314.913C380.273 315.061 379.861 315.135 379.4 315.135C378.971 315.135 378.576 315.061 378.217 314.913C377.861 314.76 377.553 314.542 377.291 314.256C377.033 313.971 376.832 313.622 376.688 313.208C376.547 312.793 376.477 312.323 376.477 311.795C376.477 311.092 376.596 310.495 376.834 310.002C377.072 309.506 377.412 309.129 377.854 308.872C378.299 308.61 378.828 308.479 379.441 308.479C380.027 308.479 380.539 308.61 380.977 308.872C381.418 309.133 381.76 309.512 382.002 310.008C382.248 310.5 382.371 311.096 382.371 311.795ZM377.484 311.795C377.484 312.311 377.553 312.758 377.689 313.137C377.826 313.516 378.037 313.809 378.322 314.016C378.607 314.223 378.975 314.327 379.424 314.327C379.869 314.327 380.234 314.223 380.52 314.016C380.809 313.809 381.021 313.516 381.158 313.137C381.295 312.758 381.363 312.311 381.363 311.795C381.363 311.284 381.295 310.842 381.158 310.471C381.021 310.096 380.811 309.807 380.525 309.604C380.24 309.401 379.871 309.299 379.418 309.299C378.75 309.299 378.26 309.52 377.947 309.961C377.639 310.403 377.484 311.014 377.484 311.795ZM385.031 315.018H384.053V305.901H385.031V315.018ZM388.066 315.018H387.088V305.901H388.066V315.018Z" fill="#222B45"/>
<rect x="334" y="304.168" width="11" height="11.8248" rx="5.5" fill="#00E096"/>
<path d="M39 207.958H589" stroke="#EFF1F3" stroke-linecap="round"/>
<path d="M39 241.282H589" stroke="#EFF1F3" stroke-linecap="round"/>
<path d="M39 173.558H589" stroke="#EFF1F3" stroke-linecap="round"/>
<path d="M39 139.159H589" stroke="#EFF1F3" stroke-linecap="round"/>
<path d="M39 104.76H589" stroke="#EFF1F3" stroke-linecap="round"/>
<path d="M39 70.3604H589" stroke="#EFF1F3" stroke-linecap="round"/>
<path d="M0.612 72.3471C1.628 71.5311 2.424 70.8631 3 70.3431C3.576 69.8151 4.06 69.2671 4.452 68.6991C4.852 68.1231 5.052 67.5591 5.052 67.0071C5.052 66.4871 4.924 66.0791 4.668 65.7831C4.42 65.4791 4.016 65.3271 3.456 65.3271C2.912 65.3271 2.488 65.4991 2.184 65.8431C1.888 66.1791 1.728 66.6311 1.704 67.1991H0.648C0.68 66.3031 0.952 65.6111 1.464 65.1231C1.976 64.6351 2.636 64.3911 3.444 64.3911C4.268 64.3911 4.92 64.6191 5.4 65.0751C5.888 65.5311 6.132 66.1591 6.132 66.9591C6.132 67.6231 5.932 68.2711 5.532 68.9031C5.14 69.5271 4.692 70.0791 4.188 70.5591C3.684 71.0311 3.04 71.5831 2.256 72.2151H6.384V73.1271H0.612V72.3471ZM13.1783 65.4951H8.96634V68.2311C9.15034 67.9751 9.42234 67.7671 9.78234 67.6071C10.1423 67.4391 10.5303 67.3551 10.9463 67.3551C11.6103 67.3551 12.1503 67.4951 12.5663 67.7751C12.9823 68.0471 13.2783 68.4031 13.4543 68.8431C13.6383 69.2751 13.7303 69.7351 13.7303 70.2231C13.7303 70.7991 13.6223 71.3151 13.4063 71.7711C13.1903 72.2271 12.8583 72.5871 12.4103 72.8511C11.9703 73.1151 11.4223 73.2471 10.7663 73.2471C9.92634 73.2471 9.24634 73.0311 8.72634 72.5991C8.20634 72.1671 7.89034 71.5911 7.77834 70.8711H8.84634C8.95034 71.3271 9.17034 71.6831 9.50634 71.9391C9.84234 72.1951 10.2663 72.3231 10.7783 72.3231C11.4103 72.3231 11.8863 72.1351 12.2063 71.7591C12.5263 71.3751 12.6863 70.8711 12.6863 70.2471C12.6863 69.6231 12.5263 69.1431 12.2063 68.8071C11.8863 68.4631 11.4143 68.2911 10.7903 68.2911C10.3663 68.2911 9.99434 68.3951 9.67434 68.6031C9.36234 68.8031 9.13434 69.0791 8.99034 69.4311H7.95834V64.5351H13.1783V65.4951ZM19.0335 73.2231L16.4535 70.3191V73.2231H15.3615V64.3431H16.4535V69.5631L18.9855 66.6471H20.5095L17.4135 69.9231L20.5215 73.2231H19.0335Z" fill="#7B91B0"/>
<path d="M0.612 106.746C1.628 105.93 2.424 105.262 3 104.742C3.576 104.214 4.06 103.666 4.452 103.098C4.852 102.522 5.052 101.958 5.052 101.406C5.052 100.886 4.924 100.478 4.668 100.182C4.42 99.8784 4.016 99.7264 3.456 99.7264C2.912 99.7264 2.488 99.8984 2.184 100.242C1.888 100.578 1.728 101.03 1.704 101.598H0.648C0.68 100.702 0.952 100.01 1.464 99.5224C1.976 99.0344 2.636 98.7904 3.444 98.7904C4.268 98.7904 4.92 99.0184 5.4 99.4744C5.888 99.9304 6.132 100.558 6.132 101.358C6.132 102.022 5.932 102.67 5.532 103.302C5.14 103.926 4.692 104.478 4.188 104.958C3.684 105.43 3.04 105.982 2.256 106.614H6.384V107.526H0.612V106.746ZM7.64634 103.194C7.64634 101.818 7.87034 100.746 8.31834 99.9784C8.76634 99.2024 9.55034 98.8144 10.6703 98.8144C11.7823 98.8144 12.5623 99.2024 13.0103 99.9784C13.4583 100.746 13.6823 101.818 13.6823 103.194C13.6823 104.594 13.4583 105.682 13.0103 106.458C12.5623 107.234 11.7823 107.622 10.6703 107.622C9.55034 107.622 8.76634 107.234 8.31834 106.458C7.87034 105.682 7.64634 104.594 7.64634 103.194ZM12.6023 103.194C12.6023 102.498 12.5543 101.91 12.4583 101.43C12.3703 100.942 12.1823 100.55 11.8943 100.254C11.6143 99.9584 11.2063 99.8104 10.6703 99.8104C10.1263 99.8104 9.71034 99.9584 9.42234 100.254C9.14234 100.55 8.95434 100.942 8.85834 101.43C8.77034 101.91 8.72634 102.498 8.72634 103.194C8.72634 103.914 8.77034 104.518 8.85834 105.006C8.95434 105.494 9.14234 105.886 9.42234 106.182C9.71034 106.478 10.1263 106.626 10.6703 106.626C11.2063 106.626 11.6143 106.478 11.8943 106.182C12.1823 105.886 12.3703 105.494 12.4583 105.006C12.5543 104.518 12.6023 103.914 12.6023 103.194ZM19.0335 107.622L16.4535 104.718V107.622H15.3615V98.7424H16.4535V103.962L18.9855 101.046H20.5095L17.4135 104.322L20.5215 107.622H19.0335Z" fill="#7B91B0"/>
<path d="M0.456 168.741V167.745H2.712V176.421H1.608V168.741H0.456ZM4.58775 171.993C4.58775 170.617 4.81175 169.545 5.25975 168.777C5.70775 168.001 6.49175 167.613 7.61175 167.613C8.72375 167.613 9.50375 168.001 9.95175 168.777C10.3997 169.545 10.6237 170.617 10.6237 171.993C10.6237 173.393 10.3997 174.481 9.95175 175.257C9.50375 176.033 8.72375 176.421 7.61175 176.421C6.49175 176.421 5.70775 176.033 5.25975 175.257C4.81175 174.481 4.58775 173.393 4.58775 171.993ZM9.54375 171.993C9.54375 171.297 9.49575 170.709 9.39975 170.229C9.31175 169.741 9.12375 169.349 8.83575 169.053C8.55575 168.757 8.14775 168.609 7.61175 168.609C7.06775 168.609 6.65175 168.757 6.36375 169.053C6.08375 169.349 5.89575 169.741 5.79975 170.229C5.71175 170.709 5.66775 171.297 5.66775 171.993C5.66775 172.713 5.71175 173.317 5.79975 173.805C5.89575 174.293 6.08375 174.685 6.36375 174.981C6.65175 175.277 7.06775 175.425 7.61175 175.425C8.14775 175.425 8.55575 175.277 8.83575 174.981C9.12375 174.685 9.31175 174.293 9.39975 173.805C9.49575 173.317 9.54375 172.713 9.54375 171.993ZM15.9749 176.421L13.3949 173.517V176.421H12.3029V167.541H13.3949V172.761L15.9269 169.845H17.4509L14.3549 173.121L17.4629 176.421H15.9749Z" fill="#7B91B0"/>
<path d="M0.456 134.342V133.346H2.712V142.022H1.608V134.342H0.456ZM10.1198 134.294H5.90775V137.03C6.09175 136.774 6.36375 136.566 6.72375 136.406C7.08375 136.238 7.47175 136.154 7.88775 136.154C8.55175 136.154 9.09175 136.294 9.50775 136.574C9.92375 136.846 10.2198 137.202 10.3958 137.642C10.5798 138.074 10.6718 138.534 10.6718 139.022C10.6718 139.598 10.5638 140.114 10.3478 140.57C10.1318 141.026 9.79975 141.386 9.35175 141.65C8.91175 141.914 8.36375 142.046 7.70775 142.046C6.86775 142.046 6.18775 141.83 5.66775 141.398C5.14775 140.966 4.83175 140.39 4.71975 139.67H5.78775C5.89175 140.126 6.11175 140.482 6.44775 140.738C6.78375 140.994 7.20775 141.122 7.71975 141.122C8.35175 141.122 8.82775 140.934 9.14775 140.558C9.46775 140.174 9.62775 139.67 9.62775 139.046C9.62775 138.422 9.46775 137.942 9.14775 137.606C8.82775 137.262 8.35575 137.09 7.73175 137.09C7.30775 137.09 6.93575 137.194 6.61575 137.402C6.30375 137.602 6.07575 137.878 5.93175 138.23H4.89975V133.334H10.1198V134.294ZM15.9749 142.022L13.3949 139.118V142.022H12.3029V133.142H13.3949V138.362L15.9269 135.446H17.4509L14.3549 138.722L17.4629 142.022H15.9749Z" fill="#7B91B0"/>
<path d="M6.276 203.092H2.064V205.828C2.248 205.572 2.52 205.364 2.88 205.204C3.24 205.036 3.628 204.952 4.044 204.952C4.708 204.952 5.248 205.092 5.664 205.372C6.08 205.644 6.376 206 6.552 206.44C6.736 206.872 6.828 207.332 6.828 207.82C6.828 208.396 6.72 208.912 6.504 209.368C6.288 209.824 5.956 210.184 5.508 210.448C5.068 210.712 4.52 210.844 3.864 210.844C3.024 210.844 2.344 210.628 1.824 210.196C1.304 209.764 0.988 209.188 0.876 208.468H1.944C2.048 208.924 2.268 209.28 2.604 209.536C2.94 209.792 3.364 209.92 3.876 209.92C4.508 209.92 4.984 209.732 5.304 209.356C5.624 208.972 5.784 208.468 5.784 207.844C5.784 207.22 5.624 206.74 5.304 206.404C4.984 206.06 4.512 205.888 3.888 205.888C3.464 205.888 3.092 205.992 2.772 206.2C2.46 206.4 2.232 206.676 2.088 207.028H1.056V202.132H6.276V203.092ZM12.1312 210.82L9.55116 207.916V210.82H8.45916V201.94H9.55116V207.16L12.0832 204.244H13.6072L10.5112 207.52L13.6192 210.82H12.1312Z" fill="#7B91B0"/>
<path d="M0.744 240.791C0.744 239.415 0.968 238.343 1.416 237.575C1.864 236.799 2.648 236.411 3.768 236.411C4.88 236.411 5.66 236.799 6.108 237.575C6.556 238.343 6.78 239.415 6.78 240.791C6.78 242.191 6.556 243.279 6.108 244.055C5.66 244.831 4.88 245.219 3.768 245.219C2.648 245.219 1.864 244.831 1.416 244.055C0.968 243.279 0.744 242.191 0.744 240.791ZM5.7 240.791C5.7 240.095 5.652 239.507 5.556 239.027C5.468 238.539 5.28 238.147 4.992 237.851C4.712 237.555 4.304 237.407 3.768 237.407C3.224 237.407 2.808 237.555 2.52 237.851C2.24 238.147 2.052 238.539 1.956 239.027C1.868 239.507 1.824 240.095 1.824 240.791C1.824 241.511 1.868 242.115 1.956 242.603C2.052 243.091 2.24 243.483 2.52 243.779C2.808 244.075 3.224 244.223 3.768 244.223C4.304 244.223 4.712 244.075 4.992 243.779C5.28 243.483 5.468 243.091 5.556 242.603C5.652 242.115 5.7 241.511 5.7 240.791Z" fill="#7B91B0"/>
<path d="M63.074 262.715V271.019H61.982V264.827L59.222 271.019H58.454L55.682 264.815V271.019H54.59V262.715H55.766L58.838 269.579L61.91 262.715H63.074ZM67.794 271.127C67.178 271.127 66.618 270.987 66.114 270.707C65.618 270.427 65.226 270.031 64.938 269.519C64.658 268.999 64.518 268.399 64.518 267.719C64.518 267.047 64.662 266.455 64.95 265.943C65.246 265.423 65.646 265.027 66.15 264.755C66.654 264.475 67.218 264.335 67.842 264.335C68.466 264.335 69.03 264.475 69.534 264.755C70.038 265.027 70.434 265.419 70.722 265.931C71.018 266.443 71.166 267.039 71.166 267.719C71.166 268.399 71.014 268.999 70.71 269.519C70.414 270.031 70.01 270.427 69.498 270.707C68.986 270.987 68.418 271.127 67.794 271.127ZM67.794 270.167C68.186 270.167 68.554 270.075 68.898 269.891C69.242 269.707 69.518 269.431 69.726 269.063C69.942 268.695 70.05 268.247 70.05 267.719C70.05 267.191 69.946 266.743 69.738 266.375C69.53 266.007 69.258 265.735 68.922 265.559C68.586 265.375 68.222 265.283 67.83 265.283C67.43 265.283 67.062 265.375 66.726 265.559C66.398 265.735 66.134 266.007 65.934 266.375C65.734 266.743 65.634 267.191 65.634 267.719C65.634 268.255 65.73 268.707 65.922 269.075C66.122 269.443 66.386 269.719 66.714 269.903C67.042 270.079 67.402 270.167 67.794 270.167ZM75.8057 264.323C76.6057 264.323 77.2537 264.567 77.7497 265.055C78.2457 265.535 78.4937 266.231 78.4937 267.143V271.019H77.4137V267.299C77.4137 266.643 77.2497 266.143 76.9217 265.799C76.5937 265.447 76.1457 265.271 75.5777 265.271C75.0017 265.271 74.5417 265.451 74.1977 265.811C73.8617 266.171 73.6937 266.695 73.6937 267.383V271.019H72.6017V264.443H73.6937V265.379C73.9097 265.043 74.2017 264.783 74.5697 264.599C74.9457 264.415 75.3577 264.323 75.8057 264.323ZM79.8695 267.707C79.8695 267.035 80.0055 266.447 80.2775 265.943C80.5495 265.431 80.9215 265.035 81.3935 264.755C81.8735 264.475 82.4095 264.335 83.0015 264.335C83.5135 264.335 83.9895 264.455 84.4295 264.695C84.8695 264.927 85.2055 265.235 85.4375 265.619V262.139H86.5415V271.019H85.4375V269.783C85.2215 270.175 84.9015 270.499 84.4775 270.755C84.0535 271.003 83.5575 271.127 82.9895 271.127C82.4055 271.127 81.8735 270.983 81.3935 270.695C80.9215 270.407 80.5495 270.003 80.2775 269.483C80.0055 268.963 79.8695 268.371 79.8695 267.707ZM85.4375 267.719C85.4375 267.223 85.3375 266.791 85.1375 266.423C84.9375 266.055 84.6655 265.775 84.3215 265.583C83.9855 265.383 83.6135 265.283 83.2055 265.283C82.7975 265.283 82.4255 265.379 82.0895 265.571C81.7535 265.763 81.4855 266.043 81.2855 266.411C81.0855 266.779 80.9855 267.211 80.9855 267.707C80.9855 268.211 81.0855 268.651 81.2855 269.027C81.4855 269.395 81.7535 269.679 82.0895 269.879C82.4255 270.071 82.7975 270.167 83.2055 270.167C83.6135 270.167 83.9855 270.071 84.3215 269.879C84.6655 269.679 84.9375 269.395 85.1375 269.027C85.3375 268.651 85.4375 268.215 85.4375 267.719ZM87.9789 267.707C87.9789 267.035 88.1149 266.447 88.3869 265.943C88.6589 265.431 89.0309 265.035 89.5029 264.755C89.9829 264.475 90.5149 264.335 91.0989 264.335C91.6749 264.335 92.1749 264.459 92.5989 264.707C93.0229 264.955 93.3389 265.267 93.5469 265.643V264.443H94.6509V271.019H93.5469V269.795C93.3309 270.179 93.0069 270.499 92.5749 270.755C92.1509 271.003 91.6549 271.127 91.0869 271.127C90.5029 271.127 89.9749 270.983 89.5029 270.695C89.0309 270.407 88.6589 270.003 88.3869 269.483C88.1149 268.963 87.9789 268.371 87.9789 267.707ZM93.5469 267.719C93.5469 267.223 93.4469 266.791 93.2469 266.423C93.0469 266.055 92.7749 265.775 92.4309 265.583C92.0949 265.383 91.7229 265.283 91.3149 265.283C90.9069 265.283 90.5349 265.379 90.1989 265.571C89.8629 265.763 89.5949 266.043 89.3949 266.411C89.1949 266.779 89.0949 267.211 89.0949 267.707C89.0949 268.211 89.1949 268.651 89.3949 269.027C89.5949 269.395 89.8629 269.679 90.1989 269.879C90.5349 270.071 90.9069 270.167 91.3149 270.167C91.7229 270.167 92.0949 270.071 92.4309 269.879C92.7749 269.679 93.0469 269.395 93.2469 269.027C93.4469 268.651 93.5469 268.215 93.5469 267.719ZM102.16 264.443L98.2003 274.115H97.0723L98.3683 270.947L95.7163 264.443H96.9283L98.9923 269.771L101.032 264.443H102.16Z" fill="#7B91B0"/>
<path d="M137.642 262.655V263.543H135.362V271.019H134.27V263.543H131.978V262.655H137.642ZM144.819 264.443V271.019H143.727V270.047C143.519 270.383 143.227 270.647 142.851 270.839C142.483 271.023 142.075 271.115 141.627 271.115C141.115 271.115 140.655 271.011 140.247 270.803C139.839 270.587 139.515 270.267 139.275 269.843C139.043 269.419 138.927 268.903 138.927 268.295V264.443H140.007V268.151C140.007 268.799 140.171 269.299 140.499 269.651C140.827 269.995 141.275 270.167 141.843 270.167C142.427 270.167 142.887 269.987 143.223 269.627C143.559 269.267 143.727 268.743 143.727 268.055V264.443H144.819ZM152.662 267.479C152.662 267.687 152.65 267.907 152.626 268.139H147.37C147.41 268.787 147.63 269.295 148.03 269.663C148.438 270.023 148.93 270.203 149.506 270.203C149.978 270.203 150.37 270.095 150.682 269.879C151.002 269.655 151.226 269.359 151.354 268.991H152.53C152.354 269.623 152.002 270.139 151.474 270.539C150.946 270.931 150.29 271.127 149.506 271.127C148.882 271.127 148.322 270.987 147.826 270.707C147.338 270.427 146.954 270.031 146.674 269.519C146.394 268.999 146.254 268.399 146.254 267.719C146.254 267.039 146.39 266.443 146.662 265.931C146.934 265.419 147.314 265.027 147.802 264.755C148.298 264.475 148.866 264.335 149.506 264.335C150.13 264.335 150.682 264.471 151.162 264.743C151.642 265.015 152.01 265.391 152.266 265.871C152.53 266.343 152.662 266.879 152.662 267.479ZM151.534 267.251C151.534 266.835 151.442 266.479 151.258 266.183C151.074 265.879 150.822 265.651 150.502 265.499C150.19 265.339 149.842 265.259 149.458 265.259C148.906 265.259 148.434 265.435 148.042 265.787C147.658 266.139 147.438 266.627 147.382 267.251H151.534ZM156.432 271.127C155.928 271.127 155.476 271.043 155.076 270.875C154.676 270.699 154.36 270.459 154.128 270.155C153.896 269.843 153.768 269.487 153.744 269.087H154.872C154.904 269.415 155.056 269.683 155.328 269.891C155.608 270.099 155.972 270.203 156.42 270.203C156.836 270.203 157.164 270.111 157.404 269.927C157.644 269.743 157.764 269.511 157.764 269.231C157.764 268.943 157.636 268.731 157.38 268.595C157.124 268.451 156.728 268.311 156.192 268.175C155.704 268.047 155.304 267.919 154.992 267.791C154.688 267.655 154.424 267.459 154.2 267.203C153.984 266.939 153.876 266.595 153.876 266.171C153.876 265.835 153.976 265.527 154.176 265.247C154.376 264.967 154.66 264.747 155.028 264.587C155.396 264.419 155.816 264.335 156.288 264.335C157.016 264.335 157.604 264.519 158.052 264.887C158.5 265.255 158.74 265.759 158.772 266.399H157.68C157.656 266.055 157.516 265.779 157.26 265.571C157.012 265.363 156.676 265.259 156.252 265.259C155.86 265.259 155.548 265.343 155.316 265.511C155.084 265.679 154.968 265.899 154.968 266.171C154.968 266.387 155.036 266.567 155.172 266.711C155.316 266.847 155.492 266.959 155.7 267.047C155.916 267.127 156.212 267.219 156.588 267.323C157.06 267.451 157.444 267.579 157.74 267.707C158.036 267.827 158.288 268.011 158.496 268.259C158.712 268.507 158.824 268.831 158.832 269.231C158.832 269.591 158.732 269.915 158.532 270.203C158.332 270.491 158.048 270.719 157.68 270.887C157.32 271.047 156.904 271.127 156.432 271.127ZM159.965 267.707C159.965 267.035 160.101 266.447 160.373 265.943C160.645 265.431 161.017 265.035 161.489 264.755C161.969 264.475 162.505 264.335 163.097 264.335C163.609 264.335 164.085 264.455 164.525 264.695C164.965 264.927 165.301 265.235 165.533 265.619V262.139H166.637V271.019H165.533V269.783C165.317 270.175 164.997 270.499 164.573 270.755C164.149 271.003 163.653 271.127 163.085 271.127C162.501 271.127 161.969 270.983 161.489 270.695C161.017 270.407 160.645 270.003 160.373 269.483C160.101 268.963 159.965 268.371 159.965 267.707ZM165.533 267.719C165.533 267.223 165.433 266.791 165.233 266.423C165.033 266.055 164.761 265.775 164.417 265.583C164.081 265.383 163.709 265.283 163.301 265.283C162.893 265.283 162.521 265.379 162.185 265.571C161.849 265.763 161.581 266.043 161.381 266.411C161.181 266.779 161.081 267.211 161.081 267.707C161.081 268.211 161.181 268.651 161.381 269.027C161.581 269.395 161.849 269.679 162.185 269.879C162.521 270.071 162.893 270.167 163.301 270.167C163.709 270.167 164.081 270.071 164.417 269.879C164.761 269.679 165.033 269.395 165.233 269.027C165.433 268.651 165.533 268.215 165.533 267.719ZM168.075 267.707C168.075 267.035 168.211 266.447 168.483 265.943C168.755 265.431 169.127 265.035 169.599 264.755C170.079 264.475 170.611 264.335 171.195 264.335C171.771 264.335 172.271 264.459 172.695 264.707C173.119 264.955 173.435 265.267 173.643 265.643V264.443H174.747V271.019H173.643V269.795C173.427 270.179 173.103 270.499 172.671 270.755C172.247 271.003 171.751 271.127 171.183 271.127C170.599 271.127 170.071 270.983 169.599 270.695C169.127 270.407 168.755 270.003 168.483 269.483C168.211 268.963 168.075 268.371 168.075 267.707ZM173.643 267.719C173.643 267.223 173.543 266.791 173.343 266.423C173.143 266.055 172.871 265.775 172.527 265.583C172.191 265.383 171.819 265.283 171.411 265.283C171.003 265.283 170.631 265.379 170.295 265.571C169.959 265.763 169.691 266.043 169.491 266.411C169.291 266.779 169.191 267.211 169.191 267.707C169.191 268.211 169.291 268.651 169.491 269.027C169.691 269.395 169.959 269.679 170.295 269.879C170.631 270.071 171.003 270.167 171.411 270.167C171.819 270.167 172.191 270.071 172.527 269.879C172.871 269.679 173.143 269.395 173.343 269.027C173.543 268.651 173.643 268.215 173.643 267.719ZM182.256 264.443L178.296 274.115H177.168L178.464 270.947L175.812 264.443H177.024L179.088 269.771L181.128 264.443H182.256Z" fill="#7B91B0"/>
<path d="M210.624 262.655L208.2 271.019H206.976L205.032 264.287L203.016 271.019L201.804 271.031L199.464 262.655H200.628L202.452 269.747L204.468 262.655H205.692L207.612 269.723L209.448 262.655H210.624ZM217.819 267.479C217.819 267.687 217.807 267.907 217.783 268.139H212.527C212.567 268.787 212.787 269.295 213.187 269.663C213.595 270.023 214.087 270.203 214.663 270.203C215.135 270.203 215.527 270.095 215.839 269.879C216.159 269.655 216.383 269.359 216.511 268.991H217.687C217.511 269.623 217.159 270.139 216.631 270.539C216.103 270.931 215.447 271.127 214.663 271.127C214.039 271.127 213.479 270.987 212.983 270.707C212.495 270.427 212.111 270.031 211.831 269.519C211.551 268.999 211.411 268.399 211.411 267.719C211.411 267.039 211.547 266.443 211.819 265.931C212.091 265.419 212.471 265.027 212.959 264.755C213.455 264.475 214.023 264.335 214.663 264.335C215.287 264.335 215.839 264.471 216.319 264.743C216.799 265.015 217.167 265.391 217.423 265.871C217.687 266.343 217.819 266.879 217.819 267.479ZM216.691 267.251C216.691 266.835 216.599 266.479 216.415 266.183C216.231 265.879 215.979 265.651 215.659 265.499C215.347 265.339 214.999 265.259 214.615 265.259C214.063 265.259 213.591 265.435 213.199 265.787C212.815 266.139 212.595 266.627 212.539 267.251H216.691ZM218.852 267.707C218.852 267.035 218.988 266.447 219.26 265.943C219.532 265.431 219.904 265.035 220.376 264.755C220.856 264.475 221.392 264.335 221.984 264.335C222.496 264.335 222.972 264.455 223.412 264.695C223.852 264.927 224.188 265.235 224.42 265.619V262.139H225.524V271.019H224.42V269.783C224.204 270.175 223.884 270.499 223.46 270.755C223.036 271.003 222.54 271.127 221.972 271.127C221.388 271.127 220.856 270.983 220.376 270.695C219.904 270.407 219.532 270.003 219.26 269.483C218.988 268.963 218.852 268.371 218.852 267.707ZM224.42 267.719C224.42 267.223 224.32 266.791 224.12 266.423C223.92 266.055 223.648 265.775 223.304 265.583C222.968 265.383 222.596 265.283 222.188 265.283C221.78 265.283 221.408 265.379 221.072 265.571C220.736 265.763 220.468 266.043 220.268 266.411C220.068 266.779 219.968 267.211 219.968 267.707C219.968 268.211 220.068 268.651 220.268 269.027C220.468 269.395 220.736 269.679 221.072 269.879C221.408 270.071 221.78 270.167 222.188 270.167C222.596 270.167 222.968 270.071 223.304 269.879C223.648 269.679 223.92 269.395 224.12 269.027C224.32 268.651 224.42 268.215 224.42 267.719ZM230.573 264.323C231.373 264.323 232.021 264.567 232.517 265.055C233.013 265.535 233.261 266.231 233.261 267.143V271.019H232.181V267.299C232.181 266.643 232.017 266.143 231.689 265.799C231.361 265.447 230.913 265.271 230.345 265.271C229.769 265.271 229.309 265.451 228.965 265.811C228.629 266.171 228.461 266.695 228.461 267.383V271.019H227.369V264.443H228.461V265.379C228.677 265.043 228.969 264.783 229.337 264.599C229.713 264.415 230.125 264.323 230.573 264.323ZM241.045 267.479C241.045 267.687 241.033 267.907 241.009 268.139H235.753C235.793 268.787 236.013 269.295 236.413 269.663C236.821 270.023 237.313 270.203 237.889 270.203C238.361 270.203 238.753 270.095 239.065 269.879C239.385 269.655 239.609 269.359 239.737 268.991H240.913C240.737 269.623 240.385 270.139 239.857 270.539C239.329 270.931 238.673 271.127 237.889 271.127C237.265 271.127 236.705 270.987 236.209 270.707C235.721 270.427 235.337 270.031 235.057 269.519C234.777 268.999 234.637 268.399 234.637 267.719C234.637 267.039 234.773 266.443 235.045 265.931C235.317 265.419 235.697 265.027 236.185 264.755C236.681 264.475 237.249 264.335 237.889 264.335C238.513 264.335 239.065 264.471 239.545 264.743C240.025 265.015 240.393 265.391 240.649 265.871C240.913 266.343 241.045 266.879 241.045 267.479ZM239.917 267.251C239.917 266.835 239.825 266.479 239.641 266.183C239.457 265.879 239.205 265.651 238.885 265.499C238.573 265.339 238.225 265.259 237.841 265.259C237.289 265.259 236.817 265.435 236.425 265.787C236.041 266.139 235.821 266.627 235.765 267.251H239.917ZM244.815 271.127C244.311 271.127 243.859 271.043 243.459 270.875C243.059 270.699 242.743 270.459 242.511 270.155C242.279 269.843 242.151 269.487 242.127 269.087H243.255C243.287 269.415 243.439 269.683 243.711 269.891C243.991 270.099 244.355 270.203 244.803 270.203C245.219 270.203 245.547 270.111 245.787 269.927C246.027 269.743 246.147 269.511 246.147 269.231C246.147 268.943 246.019 268.731 245.763 268.595C245.507 268.451 245.111 268.311 244.575 268.175C244.087 268.047 243.687 267.919 243.375 267.791C243.071 267.655 242.807 267.459 242.583 267.203C242.367 266.939 242.259 266.595 242.259 266.171C242.259 265.835 242.359 265.527 242.559 265.247C242.759 264.967 243.043 264.747 243.411 264.587C243.779 264.419 244.199 264.335 244.671 264.335C245.399 264.335 245.987 264.519 246.435 264.887C246.883 265.255 247.123 265.759 247.155 266.399H246.063C246.039 266.055 245.899 265.779 245.643 265.571C245.395 265.363 245.059 265.259 244.635 265.259C244.243 265.259 243.931 265.343 243.699 265.511C243.467 265.679 243.351 265.899 243.351 266.171C243.351 266.387 243.419 266.567 243.555 266.711C243.699 266.847 243.875 266.959 244.083 267.047C244.299 267.127 244.595 267.219 244.971 267.323C245.443 267.451 245.827 267.579 246.123 267.707C246.419 267.827 246.671 268.011 246.879 268.259C247.095 268.507 247.207 268.831 247.215 269.231C247.215 269.591 247.115 269.915 246.915 270.203C246.715 270.491 246.431 270.719 246.063 270.887C245.703 271.047 245.287 271.127 244.815 271.127ZM248.348 267.707C248.348 267.035 248.484 266.447 248.756 265.943C249.028 265.431 249.4 265.035 249.872 264.755C250.352 264.475 250.888 264.335 251.48 264.335C251.992 264.335 252.468 264.455 252.908 264.695C253.348 264.927 253.684 265.235 253.916 265.619V262.139H255.02V271.019H253.916V269.783C253.7 270.175 253.38 270.499 252.956 270.755C252.532 271.003 252.036 271.127 251.468 271.127C250.884 271.127 250.352 270.983 249.872 270.695C249.4 270.407 249.028 270.003 248.756 269.483C248.484 268.963 248.348 268.371 248.348 267.707ZM253.916 267.719C253.916 267.223 253.816 266.791 253.616 266.423C253.416 266.055 253.144 265.775 252.8 265.583C252.464 265.383 252.092 265.283 251.684 265.283C251.276 265.283 250.904 265.379 250.568 265.571C250.232 265.763 249.964 266.043 249.764 266.411C249.564 266.779 249.464 267.211 249.464 267.707C249.464 268.211 249.564 268.651 249.764 269.027C249.964 269.395 250.232 269.679 250.568 269.879C250.904 270.071 251.276 270.167 251.684 270.167C252.092 270.167 252.464 270.071 252.8 269.879C253.144 269.679 253.416 269.395 253.616 269.027C253.816 268.651 253.916 268.215 253.916 267.719ZM256.457 267.707C256.457 267.035 256.593 266.447 256.865 265.943C257.137 265.431 257.509 265.035 257.981 264.755C258.461 264.475 258.993 264.335 259.577 264.335C260.153 264.335 260.653 264.459 261.077 264.707C261.501 264.955 261.817 265.267 262.025 265.643V264.443H263.129V271.019H262.025V269.795C261.809 270.179 261.485 270.499 261.053 270.755C260.629 271.003 260.133 271.127 259.565 271.127C258.981 271.127 258.453 270.983 257.981 270.695C257.509 270.407 257.137 270.003 256.865 269.483C256.593 268.963 256.457 268.371 256.457 267.707ZM262.025 267.719C262.025 267.223 261.925 266.791 261.725 266.423C261.525 266.055 261.253 265.775 260.909 265.583C260.573 265.383 260.201 265.283 259.793 265.283C259.385 265.283 259.013 265.379 258.677 265.571C258.341 265.763 258.073 266.043 257.873 266.411C257.673 266.779 257.573 267.211 257.573 267.707C257.573 268.211 257.673 268.651 257.873 269.027C258.073 269.395 258.341 269.679 258.677 269.879C259.013 270.071 259.385 270.167 259.793 270.167C260.201 270.167 260.573 270.071 260.909 269.879C261.253 269.679 261.525 269.395 261.725 269.027C261.925 268.651 262.025 268.215 262.025 267.719ZM270.639 264.443L266.679 274.115H265.551L266.847 270.947L264.195 264.443H265.407L267.471 269.771L269.511 264.443H270.639Z" fill="#7B91B0"/>
<path d="M292.287 262.655V263.543H290.007V271.019H288.915V263.543H286.623V262.655H292.287ZM296.895 264.323C297.391 264.323 297.839 264.431 298.239 264.647C298.639 264.855 298.951 265.171 299.175 265.595C299.407 266.019 299.523 266.535 299.523 267.143V271.019H298.443V267.299C298.443 266.643 298.279 266.143 297.951 265.799C297.623 265.447 297.175 265.271 296.607 265.271C296.031 265.271 295.571 265.451 295.227 265.811C294.891 266.171 294.723 266.695 294.723 267.383V271.019H293.631V262.139H294.723V265.379C294.939 265.043 295.235 264.783 295.611 264.599C295.995 264.415 296.423 264.323 296.895 264.323ZM307.139 264.443V271.019H306.047V270.047C305.839 270.383 305.547 270.647 305.171 270.839C304.803 271.023 304.395 271.115 303.947 271.115C303.435 271.115 302.975 271.011 302.567 270.803C302.159 270.587 301.835 270.267 301.595 269.843C301.363 269.419 301.247 268.903 301.247 268.295V264.443H302.327V268.151C302.327 268.799 302.491 269.299 302.819 269.651C303.147 269.995 303.595 270.167 304.163 270.167C304.747 270.167 305.207 269.987 305.543 269.627C305.879 269.267 306.047 268.743 306.047 268.055V264.443H307.139ZM310.075 265.511C310.267 265.135 310.539 264.843 310.891 264.635C311.251 264.427 311.687 264.323 312.199 264.323V265.451H311.911C310.687 265.451 310.075 266.115 310.075 267.443V271.019H308.983V264.443H310.075V265.511ZM315.787 271.127C315.283 271.127 314.831 271.043 314.431 270.875C314.031 270.699 313.715 270.459 313.483 270.155C313.251 269.843 313.123 269.487 313.099 269.087H314.227C314.259 269.415 314.411 269.683 314.683 269.891C314.963 270.099 315.327 270.203 315.775 270.203C316.191 270.203 316.519 270.111 316.759 269.927C316.999 269.743 317.119 269.511 317.119 269.231C317.119 268.943 316.991 268.731 316.735 268.595C316.479 268.451 316.083 268.311 315.547 268.175C315.059 268.047 314.659 267.919 314.347 267.791C314.043 267.655 313.779 267.459 313.555 267.203C313.339 266.939 313.231 266.595 313.231 266.171C313.231 265.835 313.331 265.527 313.531 265.247C313.731 264.967 314.015 264.747 314.383 264.587C314.751 264.419 315.171 264.335 315.643 264.335C316.371 264.335 316.959 264.519 317.407 264.887C317.855 265.255 318.095 265.759 318.127 266.399H317.035C317.011 266.055 316.871 265.779 316.615 265.571C316.367 265.363 316.031 265.259 315.607 265.259C315.215 265.259 314.903 265.343 314.671 265.511C314.439 265.679 314.323 265.899 314.323 266.171C314.323 266.387 314.391 266.567 314.527 266.711C314.671 266.847 314.847 266.959 315.055 267.047C315.271 267.127 315.567 267.219 315.943 267.323C316.415 267.451 316.799 267.579 317.095 267.707C317.391 267.827 317.643 268.011 317.851 268.259C318.067 268.507 318.179 268.831 318.187 269.231C318.187 269.591 318.087 269.915 317.887 270.203C317.687 270.491 317.403 270.719 317.035 270.887C316.675 271.047 316.259 271.127 315.787 271.127ZM319.321 267.707C319.321 267.035 319.457 266.447 319.729 265.943C320.001 265.431 320.373 265.035 320.845 264.755C321.325 264.475 321.861 264.335 322.453 264.335C322.965 264.335 323.441 264.455 323.881 264.695C324.321 264.927 324.657 265.235 324.889 265.619V262.139H325.993V271.019H324.889V269.783C324.673 270.175 324.353 270.499 323.929 270.755C323.505 271.003 323.009 271.127 322.441 271.127C321.857 271.127 321.325 270.983 320.845 270.695C320.373 270.407 320.001 270.003 319.729 269.483C319.457 268.963 319.321 268.371 319.321 267.707ZM324.889 267.719C324.889 267.223 324.789 266.791 324.589 266.423C324.389 266.055 324.117 265.775 323.773 265.583C323.437 265.383 323.065 265.283 322.657 265.283C322.249 265.283 321.877 265.379 321.541 265.571C321.205 265.763 320.937 266.043 320.737 266.411C320.537 266.779 320.437 267.211 320.437 267.707C320.437 268.211 320.537 268.651 320.737 269.027C320.937 269.395 321.205 269.679 321.541 269.879C321.877 270.071 322.249 270.167 322.657 270.167C323.065 270.167 323.437 270.071 323.773 269.879C324.117 269.679 324.389 269.395 324.589 269.027C324.789 268.651 324.889 268.215 324.889 267.719ZM327.43 267.707C327.43 267.035 327.566 266.447 327.838 265.943C328.11 265.431 328.482 265.035 328.954 264.755C329.434 264.475 329.966 264.335 330.55 264.335C331.126 264.335 331.626 264.459 332.05 264.707C332.474 264.955 332.79 265.267 332.998 265.643V264.443H334.102V271.019H332.998V269.795C332.782 270.179 332.458 270.499 332.026 270.755C331.602 271.003 331.106 271.127 330.538 271.127C329.954 271.127 329.426 270.983 328.954 270.695C328.482 270.407 328.11 270.003 327.838 269.483C327.566 268.963 327.43 268.371 327.43 267.707ZM332.998 267.719C332.998 267.223 332.898 266.791 332.698 266.423C332.498 266.055 332.226 265.775 331.882 265.583C331.546 265.383 331.174 265.283 330.766 265.283C330.358 265.283 329.986 265.379 329.65 265.571C329.314 265.763 329.046 266.043 328.846 266.411C328.646 266.779 328.546 267.211 328.546 267.707C328.546 268.211 328.646 268.651 328.846 269.027C329.046 269.395 329.314 269.679 329.65 269.879C329.986 270.071 330.358 270.167 330.766 270.167C331.174 270.167 331.546 270.071 331.882 269.879C332.226 269.679 332.498 269.395 332.698 269.027C332.898 268.651 332.998 268.215 332.998 267.719ZM341.611 264.443L337.651 274.115H336.523L337.819 270.947L335.167 264.443H336.379L338.443 269.771L340.483 264.443H341.611Z" fill="#7B91B0"/>
<path d="M380.423 262.655V263.543H376.787V266.363H379.739V267.251H376.787V271.019H375.695V262.655H380.423ZM382.834 265.511C383.026 265.135 383.298 264.843 383.65 264.635C384.01 264.427 384.446 264.323 384.958 264.323V265.451H384.67C383.446 265.451 382.834 266.115 382.834 267.443V271.019H381.742V264.443H382.834V265.511ZM386.783 263.375C386.575 263.375 386.399 263.303 386.255 263.159C386.111 263.015 386.039 262.839 386.039 262.631C386.039 262.423 386.111 262.247 386.255 262.103C386.399 261.959 386.575 261.887 386.783 261.887C386.983 261.887 387.151 261.959 387.287 262.103C387.431 262.247 387.503 262.423 387.503 262.631C387.503 262.839 387.431 263.015 387.287 263.159C387.151 263.303 386.983 263.375 386.783 263.375ZM387.311 264.443V271.019H386.219V264.443H387.311ZM388.764 267.707C388.764 267.035 388.9 266.447 389.172 265.943C389.444 265.431 389.816 265.035 390.288 264.755C390.768 264.475 391.304 264.335 391.896 264.335C392.408 264.335 392.884 264.455 393.324 264.695C393.764 264.927 394.1 265.235 394.332 265.619V262.139H395.436V271.019H394.332V269.783C394.116 270.175 393.796 270.499 393.372 270.755C392.948 271.003 392.452 271.127 391.884 271.127C391.3 271.127 390.768 270.983 390.288 270.695C389.816 270.407 389.444 270.003 389.172 269.483C388.9 268.963 388.764 268.371 388.764 267.707ZM394.332 267.719C394.332 267.223 394.232 266.791 394.032 266.423C393.832 266.055 393.56 265.775 393.216 265.583C392.88 265.383 392.508 265.283 392.1 265.283C391.692 265.283 391.32 265.379 390.984 265.571C390.648 265.763 390.38 266.043 390.18 266.411C389.98 266.779 389.88 267.211 389.88 267.707C389.88 268.211 389.98 268.651 390.18 269.027C390.38 269.395 390.648 269.679 390.984 269.879C391.32 270.071 391.692 270.167 392.1 270.167C392.508 270.167 392.88 270.071 393.216 269.879C393.56 269.679 393.832 269.395 394.032 269.027C394.232 268.651 394.332 268.215 394.332 267.719ZM396.873 267.707C396.873 267.035 397.009 266.447 397.281 265.943C397.553 265.431 397.925 265.035 398.397 264.755C398.877 264.475 399.409 264.335 399.993 264.335C400.569 264.335 401.069 264.459 401.493 264.707C401.917 264.955 402.233 265.267 402.441 265.643V264.443H403.545V271.019H402.441V269.795C402.225 270.179 401.901 270.499 401.469 270.755C401.045 271.003 400.549 271.127 399.981 271.127C399.397 271.127 398.869 270.983 398.397 270.695C397.925 270.407 397.553 270.003 397.281 269.483C397.009 268.963 396.873 268.371 396.873 267.707ZM402.441 267.719C402.441 267.223 402.341 266.791 402.141 266.423C401.941 266.055 401.669 265.775 401.325 265.583C400.989 265.383 400.617 265.283 400.209 265.283C399.801 265.283 399.429 265.379 399.093 265.571C398.757 265.763 398.489 266.043 398.289 266.411C398.089 266.779 397.989 267.211 397.989 267.707C397.989 268.211 398.089 268.651 398.289 269.027C398.489 269.395 398.757 269.679 399.093 269.879C399.429 270.071 399.801 270.167 400.209 270.167C400.617 270.167 400.989 270.071 401.325 269.879C401.669 269.679 401.941 269.395 402.141 269.027C402.341 268.651 402.441 268.215 402.441 267.719ZM411.055 264.443L407.095 274.115H405.967L407.263 270.947L404.611 264.443H405.823L407.887 269.771L409.927 264.443H411.055Z" fill="#7B91B0"/>
<path d="M447.248 271.103C446.696 271.103 446.2 271.007 445.76 270.815C445.328 270.615 444.988 270.343 444.74 269.999C444.492 269.647 444.364 269.243 444.356 268.787H445.52C445.56 269.179 445.72 269.511 446 269.783C446.288 270.047 446.704 270.179 447.248 270.179C447.768 270.179 448.176 270.051 448.472 269.795C448.776 269.531 448.928 269.195 448.928 268.787C448.928 268.467 448.84 268.207 448.664 268.007C448.488 267.807 448.268 267.655 448.004 267.551C447.74 267.447 447.384 267.335 446.936 267.215C446.384 267.071 445.94 266.927 445.604 266.783C445.276 266.639 444.992 266.415 444.752 266.111C444.52 265.799 444.404 265.383 444.404 264.863C444.404 264.407 444.52 264.003 444.752 263.651C444.984 263.299 445.308 263.027 445.724 262.835C446.148 262.643 446.632 262.547 447.176 262.547C447.96 262.547 448.6 262.743 449.096 263.135C449.6 263.527 449.884 264.047 449.948 264.695H448.748C448.708 264.375 448.54 264.095 448.244 263.855C447.948 263.607 447.556 263.483 447.068 263.483C446.612 263.483 446.24 263.603 445.952 263.843C445.664 264.075 445.52 264.403 445.52 264.827C445.52 265.131 445.604 265.379 445.772 265.571C445.948 265.763 446.16 265.911 446.408 266.015C446.664 266.111 447.02 266.223 447.476 266.351C448.028 266.503 448.472 266.655 448.808 266.807C449.144 266.951 449.432 267.179 449.672 267.491C449.912 267.795 450.032 268.211 450.032 268.739C450.032 269.147 449.924 269.531 449.708 269.891C449.492 270.251 449.172 270.543 448.748 270.767C448.324 270.991 447.824 271.103 447.248 271.103ZM451.231 267.707C451.231 267.035 451.367 266.447 451.639 265.943C451.911 265.431 452.283 265.035 452.755 264.755C453.235 264.475 453.767 264.335 454.351 264.335C454.927 264.335 455.427 264.459 455.851 264.707C456.275 264.955 456.591 265.267 456.799 265.643V264.443H457.903V271.019H456.799V269.795C456.583 270.179 456.259 270.499 455.827 270.755C455.403 271.003 454.907 271.127 454.339 271.127C453.755 271.127 453.227 270.983 452.755 270.695C452.283 270.407 451.911 270.003 451.639 269.483C451.367 268.963 451.231 268.371 451.231 267.707ZM456.799 267.719C456.799 267.223 456.699 266.791 456.499 266.423C456.299 266.055 456.027 265.775 455.683 265.583C455.347 265.383 454.975 265.283 454.567 265.283C454.159 265.283 453.787 265.379 453.451 265.571C453.115 265.763 452.847 266.043 452.647 266.411C452.447 266.779 452.347 267.211 452.347 267.707C452.347 268.211 452.447 268.651 452.647 269.027C452.847 269.395 453.115 269.679 453.451 269.879C453.787 270.071 454.159 270.167 454.567 270.167C454.975 270.167 455.347 270.071 455.683 269.879C456.027 269.679 456.299 269.395 456.499 269.027C456.699 268.651 456.799 268.215 456.799 267.719ZM461.08 265.343V269.219C461.08 269.539 461.148 269.767 461.284 269.903C461.42 270.031 461.656 270.095 461.992 270.095H462.796V271.019H461.812C461.204 271.019 460.748 270.879 460.444 270.599C460.14 270.319 459.988 269.859 459.988 269.219V265.343H459.136V264.443H459.988V262.787H461.08V264.443H462.796V265.343H461.08ZM469.951 264.443V271.019H468.859V270.047C468.651 270.383 468.359 270.647 467.983 270.839C467.615 271.023 467.207 271.115 466.759 271.115C466.247 271.115 465.787 271.011 465.379 270.803C464.971 270.587 464.647 270.267 464.407 269.843C464.175 269.419 464.059 268.903 464.059 268.295V264.443H465.139V268.151C465.139 268.799 465.303 269.299 465.631 269.651C465.959 269.995 466.407 270.167 466.975 270.167C467.559 270.167 468.019 269.987 468.355 269.627C468.691 269.267 468.859 268.743 468.859 268.055V264.443H469.951ZM472.887 265.511C473.079 265.135 473.351 264.843 473.703 264.635C474.063 264.427 474.499 264.323 475.011 264.323V265.451H474.723C473.499 265.451 472.887 266.115 472.887 267.443V271.019H471.795V264.443H472.887V265.511ZM475.864 267.707C475.864 267.035 476 266.447 476.272 265.943C476.544 265.431 476.916 265.035 477.388 264.755C477.868 264.475 478.404 264.335 478.996 264.335C479.508 264.335 479.984 264.455 480.424 264.695C480.864 264.927 481.2 265.235 481.432 265.619V262.139H482.536V271.019H481.432V269.783C481.216 270.175 480.896 270.499 480.472 270.755C480.048 271.003 479.552 271.127 478.984 271.127C478.4 271.127 477.868 270.983 477.388 270.695C476.916 270.407 476.544 270.003 476.272 269.483C476 268.963 475.864 268.371 475.864 267.707ZM481.432 267.719C481.432 267.223 481.332 266.791 481.132 266.423C480.932 266.055 480.66 265.775 480.316 265.583C479.98 265.383 479.608 265.283 479.2 265.283C478.792 265.283 478.42 265.379 478.084 265.571C477.748 265.763 477.48 266.043 477.28 266.411C477.08 266.779 476.98 267.211 476.98 267.707C476.98 268.211 477.08 268.651 477.28 269.027C477.48 269.395 477.748 269.679 478.084 269.879C478.42 270.071 478.792 270.167 479.2 270.167C479.608 270.167 479.98 270.071 480.316 269.879C480.66 269.679 480.932 269.395 481.132 269.027C481.332 268.651 481.432 268.215 481.432 267.719ZM483.973 267.707C483.973 267.035 484.109 266.447 484.381 265.943C484.653 265.431 485.025 265.035 485.497 264.755C485.977 264.475 486.509 264.335 487.093 264.335C487.669 264.335 488.169 264.459 488.593 264.707C489.017 264.955 489.333 265.267 489.541 265.643V264.443H490.645V271.019H489.541V269.795C489.325 270.179 489.001 270.499 488.569 270.755C488.145 271.003 487.649 271.127 487.081 271.127C486.497 271.127 485.969 270.983 485.497 270.695C485.025 270.407 484.653 270.003 484.381 269.483C484.109 268.963 483.973 268.371 483.973 267.707ZM489.541 267.719C489.541 267.223 489.441 266.791 489.241 266.423C489.041 266.055 488.769 265.775 488.425 265.583C488.089 265.383 487.717 265.283 487.309 265.283C486.901 265.283 486.529 265.379 486.193 265.571C485.857 265.763 485.589 266.043 485.389 266.411C485.189 266.779 485.089 267.211 485.089 267.707C485.089 268.211 485.189 268.651 485.389 269.027C485.589 269.395 485.857 269.679 486.193 269.879C486.529 270.071 486.901 270.167 487.309 270.167C487.717 270.167 488.089 270.071 488.425 269.879C488.769 269.679 489.041 269.395 489.241 269.027C489.441 268.651 489.541 268.215 489.541 267.719ZM498.154 264.443L494.194 274.115H493.066L494.362 270.947L491.71 264.443H492.922L494.986 269.771L497.026 264.443H498.154Z" fill="#7B91B0"/>
<path d="M530.889 271.103C530.337 271.103 529.841 271.007 529.401 270.815C528.969 270.615 528.629 270.343 528.381 269.999C528.133 269.647 528.005 269.243 527.997 268.787H529.161C529.201 269.179 529.361 269.511 529.641 269.783C529.929 270.047 530.345 270.179 530.889 270.179C531.409 270.179 531.817 270.051 532.113 269.795C532.417 269.531 532.569 269.195 532.569 268.787C532.569 268.467 532.481 268.207 532.305 268.007C532.129 267.807 531.909 267.655 531.645 267.551C531.381 267.447 531.025 267.335 530.577 267.215C530.025 267.071 529.581 266.927 529.245 266.783C528.917 266.639 528.633 266.415 528.393 266.111C528.161 265.799 528.045 265.383 528.045 264.863C528.045 264.407 528.161 264.003 528.393 263.651C528.625 263.299 528.949 263.027 529.365 262.835C529.789 262.643 530.273 262.547 530.817 262.547C531.601 262.547 532.241 262.743 532.737 263.135C533.241 263.527 533.525 264.047 533.589 264.695H532.389C532.349 264.375 532.181 264.095 531.885 263.855C531.589 263.607 531.197 263.483 530.709 263.483C530.253 263.483 529.881 263.603 529.593 263.843C529.305 264.075 529.161 264.403 529.161 264.827C529.161 265.131 529.245 265.379 529.413 265.571C529.589 265.763 529.801 265.911 530.049 266.015C530.305 266.111 530.661 266.223 531.117 266.351C531.669 266.503 532.113 266.655 532.449 266.807C532.785 266.951 533.073 267.179 533.312 267.491C533.553 267.795 533.673 268.211 533.673 268.739C533.673 269.147 533.565 269.531 533.349 269.891C533.133 270.251 532.813 270.543 532.389 270.767C531.965 270.991 531.465 271.103 530.889 271.103ZM541.111 264.443V271.019H540.019V270.047C539.811 270.383 539.519 270.647 539.143 270.839C538.775 271.023 538.367 271.115 537.919 271.115C537.407 271.115 536.947 271.011 536.539 270.803C536.131 270.587 535.807 270.267 535.567 269.843C535.335 269.419 535.219 268.903 535.219 268.295V264.443H536.299V268.151C536.299 268.799 536.463 269.299 536.791 269.651C537.119 269.995 537.567 270.167 538.135 270.167C538.719 270.167 539.179 269.987 539.515 269.627C539.851 269.267 540.019 268.743 540.019 268.055V264.443H541.111ZM546.159 264.323C546.959 264.323 547.607 264.567 548.103 265.055C548.599 265.535 548.847 266.231 548.847 267.143V271.019H547.767V267.299C547.767 266.643 547.603 266.143 547.275 265.799C546.947 265.447 546.499 265.271 545.931 265.271C545.355 265.271 544.895 265.451 544.551 265.811C544.215 266.171 544.047 266.695 544.047 267.383V271.019H542.955V264.443H544.047V265.379C544.263 265.043 544.555 264.783 544.923 264.599C545.299 264.415 545.711 264.323 546.159 264.323ZM550.223 267.707C550.223 267.035 550.359 266.447 550.631 265.943C550.903 265.431 551.275 265.035 551.747 264.755C552.227 264.475 552.763 264.335 553.355 264.335C553.867 264.335 554.343 264.455 554.783 264.695C555.223 264.927 555.559 265.235 555.791 265.619V262.139H556.895V271.019H555.791V269.783C555.575 270.175 555.255 270.499 554.831 270.755C554.407 271.003 553.911 271.127 553.343 271.127C552.759 271.127 552.227 270.983 551.747 270.695C551.275 270.407 550.903 270.003 550.631 269.483C550.359 268.963 550.223 268.371 550.223 267.707ZM555.791 267.719C555.791 267.223 555.691 266.791 555.491 266.423C555.291 266.055 555.019 265.775 554.675 265.583C554.339 265.383 553.967 265.283 553.559 265.283C553.151 265.283 552.779 265.379 552.443 265.571C552.107 265.763 551.839 266.043 551.639 266.411C551.439 266.779 551.339 267.211 551.339 267.707C551.339 268.211 551.439 268.651 551.639 269.027C551.839 269.395 552.107 269.679 552.443 269.879C552.779 270.071 553.151 270.167 553.559 270.167C553.967 270.167 554.339 270.071 554.675 269.879C555.019 269.679 555.291 269.395 555.491 269.027C555.691 268.651 555.791 268.215 555.791 267.719ZM558.332 267.707C558.332 267.035 558.468 266.447 558.74 265.943C559.012 265.431 559.384 265.035 559.856 264.755C560.336 264.475 560.868 264.335 561.452 264.335C562.028 264.335 562.528 264.459 562.952 264.707C563.376 264.955 563.692 265.267 563.9 265.643V264.443H565.004V271.019H563.9V269.795C563.684 270.179 563.36 270.499 562.928 270.755C562.504 271.003 562.008 271.127 561.44 271.127C560.856 271.127 560.328 270.983 559.856 270.695C559.384 270.407 559.012 270.003 558.74 269.483C558.468 268.963 558.332 268.371 558.332 267.707ZM563.9 267.719C563.9 267.223 563.8 266.791 563.6 266.423C563.4 266.055 563.128 265.775 562.784 265.583C562.448 265.383 562.076 265.283 561.668 265.283C561.26 265.283 560.888 265.379 560.552 265.571C560.216 265.763 559.948 266.043 559.748 266.411C559.548 266.779 559.448 267.211 559.448 267.707C559.448 268.211 559.548 268.651 559.748 269.027C559.948 269.395 560.216 269.679 560.552 269.879C560.888 270.071 561.26 270.167 561.668 270.167C562.076 270.167 562.448 270.071 562.784 269.879C563.128 269.679 563.4 269.395 563.6 269.027C563.8 268.651 563.9 268.215 563.9 267.719ZM572.514 264.443L568.554 274.115H567.426L568.722 270.947L566.07 264.443H567.282L569.346 269.771L571.386 264.443H572.514Z" fill="#7B91B0"/>
<rect x="63" y="146.146" width="12" height="94.598" rx="2" fill="#0095FF"/>
<rect x="79" y="154.746" width="12" height="85.9982" rx="2" fill="#00E096"/>
<rect x="145" y="124.647" width="12" height="116.098" rx="2" fill="#0095FF"/>
<rect x="161" y="160.121" width="12" height="80.6233" rx="2" fill="#00E096"/>
<rect x="223" y="202.045" width="12" height="38.6992" rx="2" fill="#0095FF"/>
<rect x="239" y="85.9476" width="12" height="154.797" rx="2" fill="#00E096"/>
<rect x="302" y="133.247" width="12" height="107.498" rx="2" fill="#0095FF"/>
<rect x="318" y="197.745" width="12" height="42.9991" rx="2" fill="#00E096"/>
<rect x="379" y="159.046" width="12" height="81.6983" rx="2" fill="#0095FF"/>
<rect x="395" y="164.421" width="12" height="76.3234" rx="2" fill="#00E096"/>
<rect x="456" y="126.797" width="12" height="113.948" rx="2" fill="#0095FF"/>
<rect x="472" y="149.371" width="12" height="91.3731" rx="2" fill="#00E096"/>
<rect x="538" y="96.6974" width="12" height="144.047" rx="2" fill="#0095FF"/>
<rect x="554" y="165.496" width="12" height="75.2484" rx="2" fill="#00E096"/>
</svg>
