<svg width="32" height="32" viewBox="0 0 32 32" fill="none" xmlns="http://www.w3.org/2000/svg">
<path d="M9.33325 22.684L15.2173 22.664L28.0599 9.944C28.5639 9.44 28.8413 8.77067 28.8413 8.05867C28.8413 7.34667 28.5639 6.67734 28.0599 6.17334L25.9453 4.05867C24.9373 3.05067 23.1786 3.056 22.1786 4.05467L9.33325 16.7773V22.684ZM24.0599 5.944L26.1786 8.05467L24.0493 10.164L21.9346 8.05067L24.0599 5.944ZM11.9999 17.8893L20.0399 9.92534L22.1546 12.04L14.1159 20.0013L11.9999 20.008V17.8893Z" fill="#5D5FEF"/>
<path d="M6.66667 28H25.3333C26.804 28 28 26.804 28 25.3333V13.776L25.3333 16.4427V25.3333H10.8773C10.8427 25.3333 10.8067 25.3467 10.772 25.3467C10.728 25.3467 10.684 25.3347 10.6387 25.3333H6.66667V6.66667H15.796L18.4627 4H6.66667C5.196 4 4 5.196 4 6.66667V25.3333C4 26.804 5.196 28 6.66667 28Z" fill="#5D5FEF"/>
</svg>
