<?xml version="1.0" standalone="no"?>
<!DOCTYPE svg PUBLIC "-//W3C//DTD SVG 20010904//EN"
 "http://www.w3.org/TR/2001/REC-SVG-20010904/DTD/svg10.dtd">
<svg version="1.0" xmlns="http://www.w3.org/2000/svg"
 width="117.000000pt" height="92.000000pt" viewBox="0 0 117.000000 92.000000"
 preserveAspectRatio="xMidYMid meet">

<g transform="translate(0.000000,92.000000) scale(0.100000,-0.100000)"
fill="#000000" stroke="none">
<path d="M510 851 c-202 -43 -349 -255 -312 -451 33 -177 158 -302 328 -330
282 -46 523 214 449 486 -35 128 -125 230 -243 274 -62 23 -167 33 -222 21z
m273 -55 c18 -7 43 -26 57 -41 l25 -28 -32 17 c-18 9 -51 16 -75 16 l-43 -1
37 -19 c69 -37 129 -137 127 -214 l-1 -31 -10 30 c-16 43 -51 97 -89 135 -74
74 -190 93 -264 43 -34 -22 -37 -23 -21 -5 28 32 110 82 159 97 55 18 91 18
130 1z m-100 -169 c150 -88 140 -295 -18 -363 -30 -13 -77 -19 -184 -22 -146
-4 -172 3 -96 28 l35 12 0 174 c0 132 -3 174 -12 174 -7 1 -26 7 -43 15 -27
13 -16 14 120 12 144 -2 152 -3 198 -30z m-313 -182 c0 -8 -4 -15 -9 -15 -13
0 -22 16 -14 24 11 11 23 6 23 -9z m580 7 c0 -13 -12 -22 -22 -16 -10 6 -1 24
13 24 5 0 9 -4 9 -8z m-101 -268 c-28 -31 -114 -74 -147 -74 -13 0 -33 5 -45
12 -28 15 -98 70 -94 75 2 1 21 -6 43 -16 81 -38 169 -37 227 5 42 30 45 29
16 -2z"/>
<path d="M490 460 l0 -172 65 4 c69 4 101 21 139 72 31 41 29 139 -2 184 -30
41 -89 71 -153 79 l-49 6 0 -173z"/>
</g>
</svg>
