<svg width="7" height="16" viewBox="0 0 7 16" fill="none" xmlns="http://www.w3.org/2000/svg">
<path d="M0.28666 14.9549C0.095553 14.7028 0 14.3819 0 13.9923C0 13.6027 0.095553 13.2818 0.28666 13.0297L4.35202 7.66653L0.28666 2.3034C0.095553 2.05128 0 1.73041 0 1.34078C0 0.951154 0.095553 0.630282 0.28666 0.378169C0.477767 0.126056 0.720993 0 1.01634 0C1.31169 0 1.55491 0.126056 1.74602 0.378169L6.54106 6.70392C6.6453 6.84143 6.71932 6.99041 6.7631 7.15085C6.80688 7.31128 6.82842 7.48318 6.82772 7.66653C6.82772 7.84989 6.80583 8.02178 6.76205 8.18222C6.71827 8.34265 6.64461 8.49163 6.54106 8.62915L1.74602 14.9549C1.55491 15.207 1.31169 15.3331 1.01634 15.3331C0.720993 15.3331 0.477767 15.207 0.28666 14.9549Z" fill="#7F8080"/>
</svg>
