<svg width="33" height="35" viewBox="0 0 33 35" fill="none" xmlns="http://www.w3.org/2000/svg">
<path fill-rule="evenodd" clip-rule="evenodd" d="M21.8362 24.3047L26.4118 18.4944C26.6303 18.2232 26.7421 17.8807 26.7422 17.5364C26.7424 17.3009 26.6902 17.0645 26.5842 16.8495C26.5371 16.7536 26.4796 16.6626 26.4118 16.5784L21.8362 10.7681C21.3556 10.1578 20.5114 10.0871 19.9507 10.6101C19.3899 11.1332 19.3249 12.0519 19.8055 12.6622L22.4979 16.081L12.1418 16.081C11.4032 16.081 10.8046 16.7326 10.8046 17.5363C10.8046 18.3401 11.4032 18.9916 12.1418 18.9916L22.498 18.9916L19.8055 22.4107C19.3249 23.0209 19.3899 23.9397 19.9507 24.4627C20.5114 24.9857 21.3556 24.915 21.8362 24.3047ZM13.3703 8.80452C14.1088 8.80452 14.7075 9.45608 14.7075 10.2598L14.7075 12.4428C14.7075 13.2465 15.3061 13.8981 16.0447 13.8981C16.7832 13.8981 17.3819 13.2465 17.3819 12.4428L17.3819 10.2598C17.3819 7.8486 15.5858 5.89392 13.3703 5.89392L9.35867 5.89392C7.14313 5.89392 5.34708 7.8486 5.34708 10.2598L5.34708 24.8128C5.34708 27.224 7.14313 29.1787 9.35867 29.1787L13.3703 29.1787C15.5858 29.1787 17.3819 27.224 17.3819 24.8128L17.3819 22.6298C17.3819 21.8261 16.7832 21.1746 16.0447 21.1746C15.3061 21.1746 14.7075 21.8261 14.7075 22.6298L14.7075 24.8128C14.7075 25.6165 14.1088 26.2681 13.3703 26.2681L9.35867 26.2681C8.62016 26.2681 8.02147 25.6165 8.02147 24.8128L8.02147 10.2598C8.02147 9.45608 8.62016 8.80452 9.35867 8.80452L13.3703 8.80452Z" fill="#737791"/>
</svg>
