<svg width="29" height="31" viewBox="0 0 29 31" fill="none" xmlns="http://www.w3.org/2000/svg">
<path d="M8.86502 27.1797H11.3673L12.2353 22.2642C12.4039 21.3039 12.9466 20.4293 13.7658 19.7979C14.585 19.1664 15.627 18.8194 16.7043 18.8192H17.511C21.83 18.8192 24.0613 17.3879 24.8518 13.7187C25.1874 12.1666 25.0406 11.1998 24.5759 10.6581C22.6286 15.1049 18.4613 16.7152 13.3437 16.7152H11.9175C11.298 16.7152 10.6381 17.0195 10.5429 17.5597L8.86502 27.1797ZM0.888563 26.7517C0.760123 26.7516 0.63322 26.7264 0.51659 26.6779C0.399961 26.6293 0.296375 26.5585 0.212964 26.4704C0.129553 26.3822 0.0682974 26.2788 0.033414 26.1673C-0.00146945 26.0557 -0.00915231 25.9387 0.0108947 25.8242L4.32502 1.12988C4.38031 0.815044 4.55818 0.528319 4.82669 0.321222C5.0952 0.114124 5.43675 0.000228884 5.78996 0H16.1542C19.7246 0 22.5141 0.679967 24.0597 2.2685C25.4617 3.70997 25.8698 5.30287 25.4633 7.64416C26.0441 7.92227 26.541 8.26298 26.9411 8.67212C28.2625 10.0306 28.5206 11.9628 28.0205 14.2778C26.825 19.818 22.7351 21.7327 17.511 21.7327H16.7043C16.3951 21.7327 16.0961 21.8323 15.861 22.0136C15.6259 22.1948 15.4701 22.4458 15.4217 22.7214L14.2891 29.1032C14.2411 29.3786 14.0857 29.6296 13.8508 29.8108C13.616 29.9921 13.3171 30.0917 13.0081 30.0918H5.99969C5.88714 30.0918 5.77594 30.0697 5.67373 30.0272C5.57152 29.9847 5.48072 29.9227 5.40759 29.8455C5.33446 29.7683 5.28073 29.6777 5.25009 29.58C5.21946 29.4822 5.21264 29.3797 5.23012 29.2793L5.67218 26.7517H0.888563ZM11.9175 13.8017H13.3453C18.4903 13.8017 21.2411 12.037 22.1898 7.64416C22.222 7.4971 22.2495 7.34859 22.2769 7.19425C22.5447 5.65086 22.3576 4.93303 21.6332 4.19046C20.8829 3.41876 19.0469 2.91206 16.1542 2.91206H7.2807L3.62321 23.8396H6.14167L7.31942 17.1011L7.33233 17.1025C7.56921 16.1649 8.15188 15.3277 8.9849 14.728C9.81793 14.1283 10.8519 13.8017 11.9175 13.8017Z" fill="#808080"/>
</svg>
