<svg width="27" height="30" viewBox="0 0 27 30" fill="none" xmlns="http://www.w3.org/2000/svg">
<path d="M13.0446 9.39732C14.4632 9.39732 15.8237 10.0106 16.8268 11.1023C17.8299 12.194 18.3934 13.6746 18.3934 15.2185C18.3934 16.7624 17.8299 18.243 16.8268 19.3347C15.8237 20.4264 14.4632 21.0397 13.0446 21.0397C11.626 21.0397 10.2656 20.4264 9.26247 19.3347C8.25938 18.243 7.69585 16.7624 7.69585 15.2185C7.69585 13.6746 8.25938 12.194 9.26247 11.1023C10.2656 10.0106 11.626 9.39732 13.0446 9.39732ZM13.0446 12.3079C12.3353 12.3079 11.6551 12.6146 11.1536 13.1604C10.652 13.7063 10.3702 14.4466 10.3702 15.2185C10.3702 15.9904 10.652 16.7308 11.1536 17.2766C11.6551 17.8225 12.3353 18.1291 13.0446 18.1291C13.7539 18.1291 14.4342 17.8225 14.9357 17.2766C15.4373 16.7308 15.719 15.9904 15.719 15.2185C15.719 14.4466 15.4373 13.7063 14.9357 13.1604C14.4342 12.6146 13.7539 12.3079 13.0446 12.3079ZM10.3702 29.7715C10.0359 29.7715 9.75513 29.5095 9.70164 29.1603L9.20688 25.3037C8.36445 24.9399 7.64236 24.4451 6.94702 23.863L3.61739 25.3328C3.32321 25.4493 2.96217 25.3328 2.8017 25.0127L0.127306 19.9773C0.0454633 19.8274 0.0166108 19.6501 0.046144 19.4787C0.0756771 19.3073 0.161573 19.1534 0.28777 19.0459L3.10926 16.6302L3.01565 15.2185L3.10926 13.7632L0.28777 11.3911C0.161573 11.2836 0.0756771 11.1297 0.046144 10.9583C0.0166108 10.7869 0.0454633 10.6096 0.127306 10.4597L2.8017 5.42435C2.96217 5.10419 3.32321 4.97321 3.61739 5.10419L6.94702 6.55949C7.64236 5.99192 8.36445 5.49712 9.20688 5.13329L9.70164 1.27675C9.75513 0.927481 10.0359 0.665527 10.3702 0.665527H15.719C16.0533 0.665527 16.3341 0.927481 16.3876 1.27675L16.8824 5.13329C17.7248 5.49712 18.4469 5.99192 19.1423 6.55949L22.4719 5.10419C22.7661 4.97321 23.1271 5.10419 23.2876 5.42435L25.962 10.4597C26.1358 10.7799 26.0556 11.1728 25.8015 11.3911L22.98 13.7632L23.0736 15.2185L22.98 16.6738L25.8015 19.0459C26.0556 19.2642 26.1358 19.6572 25.962 19.9773L23.2876 25.0127C23.1271 25.3328 22.7661 25.4638 22.4719 25.3328L19.1423 23.8775C18.4469 24.4451 17.7248 24.9399 16.8824 25.3037L16.3876 29.1603C16.3341 29.5095 16.0533 29.7715 15.719 29.7715H10.3702ZM12.0417 3.57612L11.547 7.37445C9.94234 7.73828 8.52491 8.66967 7.49527 9.96488L4.27262 8.45137L3.26972 10.3433L6.09121 12.599C5.55633 14.2968 5.55633 16.1402 6.09121 17.838L3.25635 20.1083L4.25925 22.0002L7.50864 20.4867C8.53828 21.7674 9.94234 22.6987 11.5336 23.048L12.0284 26.8609H14.0609L14.5557 23.0626C16.1469 22.6987 17.551 21.7674 18.5806 20.4867L21.83 22.0002L22.8329 20.1083L19.9981 17.8526C20.5329 16.1499 20.5329 14.3017 19.9981 12.599L22.8196 10.3433L21.8167 8.45137L18.594 9.96488C17.5433 8.64103 16.118 7.73489 14.5423 7.38901L14.0475 3.57612H12.0417Z" fill="#808080"/>
</svg>
