<svg width="24" height="24" viewBox="0 0 24 24" fill="none" xmlns="http://www.w3.org/2000/svg">
<path d="M12 2C12.85 2 13.5627 2.31267 14.138 2.938C14.7133 3.56333 15.0007 4.30067 15 5.15V5.7C16.1833 6.25 17.146 7.08333 17.888 8.2C18.63 9.31667 19.0007 10.5833 19 12V16.15L17 14.15V12C17 10.6167 16.5123 9.43733 15.537 8.462C14.5617 7.48667 13.3827 6.99933 12 7C11.6667 7 11.3543 7.03333 11.063 7.1C10.7717 7.16667 10.484 7.25 10.2 7.35L8.99999 6.15V5C8.99999 4.16667 9.29166 3.45833 9.87499 2.875C10.4583 2.29167 11.1667 2 12 2ZM12 4C11.7167 4 11.4793 4.096 11.288 4.288C11.0967 4.48 11.0007 4.71733 11 5V5.1C11.1833 5.06667 11.35 5.04167 11.5 5.025C11.65 5.00833 11.8167 5 12 5C12.1833 5 12.35 5.00833 12.5 5.025C12.65 5.04167 12.8167 5.06667 13 5.1V5C13 4.71667 12.904 4.47933 12.712 4.288C12.52 4.09667 12.2827 4.00067 12 4ZM19.8 22.6L11.15 14H7.99999V12H9.14999L7.34999 10.2C7.24999 10.4833 7.16666 10.771 7.09999 11.063C7.03333 11.355 6.99999 11.6673 6.99999 12V20H17V17L19 19V20C19 20.55 18.8043 21.021 18.413 21.413C18.0217 21.805 17.5507 22.0007 17 22H6.99999C6.44999 22 5.97933 21.8043 5.58799 21.413C5.19666 21.0217 5.00066 20.5507 4.99999 20V12C4.99999 11.4 5.07099 10.821 5.21299 10.263C5.35499 9.705 5.56733 9.184 5.84999 8.7L1.39999 4.2L2.79999 2.8L21.2 21.2L19.8 22.6Z" fill="white"/>
</svg>
