<svg width="59" height="58" viewBox="0 0 59 58" fill="none" xmlns="http://www.w3.org/2000/svg">
<path fill-rule="evenodd" clip-rule="evenodd" d="M0.588623 29.1754C0.588623 21.5306 3.64397 14.199 9.08253 8.79335C14.5211 3.3877 21.8973 0.35083 29.5886 0.35083C37.2799 0.35083 44.6562 3.3877 50.0947 8.79335C55.5333 14.199 58.5886 21.5306 58.5886 29.1754C58.5886 36.8201 55.5333 44.1518 50.0947 49.5574C44.6562 54.9631 37.2799 58 29.5886 58C21.8973 58 14.5211 54.9631 9.08253 49.5574C3.64397 44.1518 0.588623 36.8201 0.588623 29.1754ZM29.5886 4.48541C24.7739 4.48558 20.063 5.87651 16.029 8.48901C11.995 11.1015 8.81179 14.823 6.86664 19.2006C4.92149 23.5783 4.29822 28.4235 5.07267 33.1468C5.84712 37.8701 7.9859 42.2678 11.2288 45.8051C13.1976 42.7401 15.9119 40.2177 19.1209 38.4712C22.3299 36.7246 25.93 35.8102 29.5886 35.8125C33.2473 35.8098 36.8476 36.724 40.0567 38.4706C43.2657 40.2172 45.98 42.7398 47.9484 45.8051C51.1913 42.2678 53.3301 37.8701 54.1046 33.1468C54.879 28.4235 54.2558 23.5783 52.3106 19.2006C50.3654 14.823 47.1823 11.1015 43.1483 8.48901C39.1143 5.87651 34.4033 4.48558 29.5886 4.48541ZM44.8352 48.6689C43.2857 46.0145 41.0616 43.8116 38.3857 42.2809C35.7098 40.7501 32.6761 39.9453 29.5886 39.9471C26.5012 39.9453 23.4675 40.7501 20.7916 42.2809C18.1157 43.8116 15.8915 46.0145 14.3421 48.6689C18.6978 52.0447 24.0652 53.8741 29.5886 53.8654C35.3335 53.8654 40.6229 51.9243 44.8352 48.6689ZM19.2987 24.845C19.2987 22.1324 20.3828 19.531 22.3126 17.6129C24.2423 15.6949 26.8596 14.6173 29.5886 14.6173C32.3177 14.6173 34.935 15.6949 36.8647 17.6129C38.7944 19.531 39.8785 22.1324 39.8785 24.845C39.8785 27.5575 38.7944 30.1589 36.8647 32.077C34.935 33.9951 32.3177 35.0726 29.5886 35.0726C26.8596 35.0726 24.2423 33.9951 22.3126 32.077C20.3828 30.1589 19.2987 27.5575 19.2987 24.845ZM29.5886 18.7519C28.7836 18.7519 27.9865 18.9095 27.2427 19.2157C26.499 19.5219 25.8232 19.9707 25.2539 20.5365C24.6847 21.1023 24.2332 21.774 23.9251 22.5132C23.617 23.2525 23.4585 24.0448 23.4585 24.845C23.4585 25.6451 23.617 26.4374 23.9251 27.1767C24.2332 27.9159 24.6847 28.5876 25.2539 29.1534C25.8232 29.7192 26.499 30.168 27.2427 30.4742C27.9865 30.7804 28.7836 30.938 29.5886 30.938C31.2144 30.938 32.7737 30.2961 33.9233 29.1534C35.0729 28.0107 35.7188 26.4609 35.7188 24.845C35.7188 23.229 35.0729 21.6792 33.9233 20.5365C32.7737 19.3938 31.2144 18.7519 29.5886 18.7519Z" fill="#54ADFF"/>
</svg>
