<svg width="31" height="31" viewBox="0 0 31 31" fill="none" xmlns="http://www.w3.org/2000/svg">
<path d="M15.3696 26.6196C18.3533 26.6196 21.2147 25.4344 23.3245 23.3246C25.4343 21.2148 26.6196 18.3533 26.6196 15.3696C26.6196 12.3859 25.4343 9.52446 23.3245 7.41468C21.2147 5.30489 18.3533 4.11963 15.3696 4.11963C12.3859 4.11963 9.5244 5.30489 7.41462 7.41468C5.30483 9.52446 4.11957 12.3859 4.11957 15.3696C4.11957 18.3533 5.30483 21.2148 7.41462 23.3246C9.5244 25.4344 12.3859 26.6196 15.3696 26.6196Z" stroke="white" stroke-width="2" stroke-linecap="round" stroke-linejoin="round"/>
<path d="M16.6196 15.3696C17.2826 15.3696 17.9185 15.633 18.3873 16.1019C18.8562 16.5707 19.1196 17.2066 19.1196 17.8696C19.1196 18.5327 18.8562 19.1686 18.3873 19.6374C17.9185 20.1062 17.2826 20.3696 16.6196 20.3696H12.8696V15.3696M16.6196 15.3696H12.8696M16.6196 15.3696C17.2826 15.3696 17.9185 15.1062 18.3873 14.6374C18.8562 14.1686 19.1196 13.5327 19.1196 12.8696C19.1196 12.2066 18.8562 11.5707 18.3873 11.1019C17.9185 10.633 17.2826 10.3696 16.6196 10.3696H12.8696V15.3696" stroke="white" stroke-width="2" stroke-linecap="round" stroke-linejoin="round"/>
</svg>
