<svg width="32" height="34" viewBox="0 0 32 34" fill="none" xmlns="http://www.w3.org/2000/svg">
<path fill-rule="evenodd" clip-rule="evenodd" d="M14.3744 2.97989C14.6067 2.69786 14.9675 2.57391 15.3127 2.65752C19.9267 3.77507 22.259 9.10929 21.7105 13.8817C21.4973 15.7369 20.9706 17.1913 20.1949 18.3485C20.1902 18.3556 20.1854 18.3626 20.1807 18.3697C20.3568 18.2783 20.5194 18.1797 20.6715 18.0756C21.4283 17.5574 21.9837 16.8735 22.7069 15.983C22.7944 15.8754 22.8842 15.7647 22.9772 15.651C23.1861 15.3954 23.5021 15.2665 23.8197 15.3075C24.1372 15.3484 24.4145 15.5537 24.559 15.8549C25.1951 17.1811 25.5531 18.6804 25.5531 20.265C25.5531 25.6659 21.403 30.0442 16.2836 30.0442C11.1643 30.0442 7.01422 25.6659 7.01422 20.265C7.01422 16.8429 8.68106 13.8321 11.2006 12.0861L11.2869 11.9942C11.3313 11.9471 11.38 11.9046 11.4323 11.8675C12.5393 11.0816 13.3342 10.4388 13.8694 9.6829C14.3749 8.9688 14.6855 8.09768 14.6855 6.7764C14.6855 5.7981 14.5142 4.86436 14.2025 4.00509C14.076 3.65611 14.142 3.26192 14.3744 2.97989ZM16.5026 5.33065C16.5689 5.80272 16.6033 6.28552 16.6033 6.7764C16.6033 8.48731 16.1843 9.79421 15.4059 10.8937C14.6749 11.9262 13.663 12.7192 12.5818 13.49L12.4894 13.5883C12.4399 13.6409 12.385 13.6877 12.3258 13.7277C10.2828 15.1076 8.93203 17.5202 8.93203 20.265C8.93203 24.5485 12.2235 28.0209 16.2836 28.0209C20.3438 28.0209 23.6353 24.5485 23.6353 20.265C23.6353 19.5638 23.5473 18.8852 23.3825 18.2404C22.8964 18.7957 22.3598 19.3316 21.7156 19.7728C20.5351 20.581 19.058 21.0424 16.9229 21.0424C16.4853 21.0424 16.1033 20.7299 15.9942 20.2828C15.8852 19.8357 16.0769 19.3675 16.4602 19.1447C17.3281 18.6403 18.0638 18.0236 18.6291 17.1803C19.1932 16.3387 19.6254 15.215 19.8066 13.6382C20.1989 10.2246 18.8598 6.85521 16.5026 5.33065Z" fill="white"/>
</svg>
