<svg width="32" height="31" viewBox="0 0 32 31" fill="none" xmlns="http://www.w3.org/2000/svg">
<path d="M4.69283 6.01836C2.97213 6.01836 1.56428 7.37249 1.56428 9.02754C1.56428 10.6826 2.97213 12.0367 4.69283 12.0367C6.41353 12.0367 7.82138 10.6976 7.82138 9.02754C7.82138 7.35744 6.42918 6.01836 4.69283 6.01836ZM15.6428 3.00918C15.024 3.00918 14.4191 3.18567 13.9046 3.51632C13.3901 3.84697 12.9892 4.31694 12.7524 4.8668C12.5156 5.41665 12.4536 6.0217 12.5743 6.60542C12.695 7.18914 12.993 7.72533 13.4305 8.14617C13.8681 8.56701 14.4255 8.85361 15.0324 8.96972C15.6393 9.08583 16.2683 9.02624 16.84 8.79848C17.4117 8.57072 17.9003 8.18503 18.2441 7.69017C18.5878 7.19531 18.7713 6.61352 18.7713 6.01836C18.7713 4.34826 17.3791 3.00918 15.6428 3.00918ZM26.5927 0C24.872 0 23.4641 1.35413 23.4641 3.00918C23.4641 4.66423 24.872 6.01836 26.5927 6.01836C28.3134 6.01836 29.7213 4.67927 29.7213 3.00918C29.7213 1.33908 28.329 0 26.5927 0ZM2.34641 13.5413C1.04807 13.5413 0 14.5494 0 15.7982V22.5688H1.56428V30.0918H7.82138V22.5688H9.38566V15.7982C9.38566 14.5494 8.33759 13.5413 7.03924 13.5413H2.34641ZM13.2963 10.5321C11.998 10.5321 10.9499 11.5402 10.9499 12.789V19.5597H12.5142V27.0826H18.7713V19.5597H20.3356V12.789C20.3356 11.5402 19.2875 10.5321 17.9892 10.5321H13.2963ZM24.2463 7.52295C22.9479 7.52295 21.8999 8.53102 21.8999 9.77983V16.5505H23.4641V24.0734H29.7213V16.5505H31.2855V9.77983C31.2855 8.53102 30.2375 7.52295 28.9391 7.52295H24.2463Z" fill="#808080"/>
</svg>
