<svg width="58" height="58" viewBox="0 0 58 58" fill="none" xmlns="http://www.w3.org/2000/svg">
<rect width="58" height="58" rx="8" fill="#FFFAF1"/>
<path d="M40.6885 36.9187C39.9117 36.2262 39.2316 35.4323 38.6665 34.5584C38.0496 33.3521 37.6799 32.0348 37.579 30.6837V26.7042C37.5843 24.5821 36.8146 22.531 35.4143 20.9364C34.014 19.3418 32.0796 18.3135 29.9746 18.0445V17.0053C29.9746 16.7201 29.8613 16.4466 29.6596 16.2449C29.4579 16.0432 29.1844 15.9299 28.8991 15.9299C28.6139 15.9299 28.3404 16.0432 28.1387 16.2449C27.937 16.4466 27.8237 16.7201 27.8237 17.0053V18.0606C25.7376 18.349 23.8265 19.3836 22.4447 20.9728C21.0628 22.562 20.3037 24.5982 20.3079 26.7042V30.6837C20.207 32.0348 19.8373 33.3521 19.2204 34.5584C18.6653 35.4303 17.9961 36.2241 17.2307 36.9187C17.1447 36.9942 17.0759 37.0871 17.0287 37.1913C16.9814 37.2954 16.9569 37.4085 16.9568 37.5228V38.6184C16.9568 38.8321 17.0417 39.0369 17.1927 39.188C17.3438 39.3391 17.5487 39.424 17.7623 39.424H40.1568C40.3704 39.424 40.5753 39.3391 40.7264 39.188C40.8775 39.0369 40.9623 38.8321 40.9623 38.6184V37.5228C40.9622 37.4085 40.9377 37.2954 40.8905 37.1913C40.8433 37.0871 40.7744 36.9942 40.6885 36.9187ZM18.6323 37.8128C19.3818 37.0888 20.0417 36.2775 20.5979 35.3962C21.3749 33.9393 21.8283 32.3319 21.9271 30.6837V26.7042C21.8951 25.7602 22.0535 24.8193 22.3927 23.9377C22.7319 23.0561 23.2451 22.2518 23.9017 21.5726C24.5582 20.8935 25.3447 20.3534 26.2144 19.9845C27.084 19.6157 28.019 19.4256 28.9636 19.4256C29.9082 19.4256 30.8432 19.6157 31.7128 19.9845C32.5824 20.3534 33.3689 20.8935 34.0255 21.5726C34.6821 22.2518 35.1952 23.0561 35.5345 23.9377C35.8737 24.8193 36.0321 25.7602 36.0001 26.7042V30.6837C36.0989 32.3319 36.5522 33.9393 37.3293 35.3962C37.8854 36.2775 38.5453 37.0888 39.2948 37.8128H18.6323Z" fill="#FFA412"/>
<path d="M28.9995 42.1144C29.5069 42.1027 29.9939 41.9119 30.3742 41.5758C30.7546 41.2397 31.0038 40.7799 31.0778 40.2777H26.8406C26.9167 40.7935 27.1776 41.2641 27.5747 41.602C27.9718 41.9398 28.4781 42.1219 28.9995 42.1144V42.1144Z" fill="#FFA412"/>
<path d="M46.3195 15.3056C48.5439 15.3056 50.3472 13.5023 50.3472 11.2778C50.3472 9.0533 48.5439 7.25 46.3195 7.25C44.095 7.25 42.2917 9.0533 42.2917 11.2778C42.2917 13.5023 44.095 15.3056 46.3195 15.3056Z" fill="#EB5757"/>
</svg>
