<svg width="32" height="33" viewBox="0 0 32 33" fill="none" xmlns="http://www.w3.org/2000/svg">
<path d="M27.414 25.336L22.337 20.259C23.386 18.678 24 16.785 24 14.75C24 9.236 19.514 4.75 14 4.75C8.486 4.75 4 9.236 4 14.75C4 20.264 8.486 24.75 14 24.75C16.035 24.75 17.928 24.136 19.509 23.087L24.586 28.164C25.366 28.945 26.634 28.945 27.414 28.164C28.195 27.383 28.195 26.117 27.414 25.336ZM7 14.75C7 10.89 10.14 7.75 14 7.75C17.86 7.75 21 10.89 21 14.75C21 18.61 17.86 21.75 14 21.75C10.14 21.75 7 18.61 7 14.75Z" fill="#5D5FEF"/>
</svg>
