<svg width="23" height="22" viewBox="0 0 23 22" fill="none" xmlns="http://www.w3.org/2000/svg">
<path d="M0.216688 18.5007C0.0659493 18.7863 -0.00843008 19.1061 0.00075902 19.429C0.00994813 19.7519 0.102394 20.0669 0.269136 20.3435C0.435879 20.6202 0.671262 20.8491 0.952471 21.008C1.23368 21.1669 1.55118 21.2505 1.87419 21.2507H20.6179C20.9428 21.2505 21.262 21.166 21.5443 21.0054C21.8266 20.8448 22.0624 20.6136 22.2285 20.3344C22.3946 20.0553 22.4853 19.7378 22.4918 19.4131C22.4983 19.0883 22.4203 18.7674 22.2654 18.4819L12.7654 0.981902C12.0504 -0.335598 10.1592 -0.324348 9.45919 0.998152L0.216688 18.5007Z" fill="#F1ECEC"/>
</svg>
