<svg width="23" height="25" viewBox="0 0 23 25" fill="none" xmlns="http://www.w3.org/2000/svg">
<path d="M11.5 10.9375C10.4834 10.9375 9.50833 10.5259 8.78944 9.79339C8.07055 9.06082 7.66669 8.06725 7.66669 7.03125C7.66669 5.99525 8.07055 5.00168 8.78944 4.26911C9.50833 3.53655 10.4834 3.125 11.5 3.125C12.5167 3.125 13.4917 3.53655 14.2106 4.26911C14.9295 5.00168 15.3334 5.99525 15.3334 7.03125C15.3334 8.06725 14.9295 9.06082 14.2106 9.79339C13.4917 10.5259 12.5167 10.9375 11.5 10.9375ZM11.5 4.6875C10.2274 4.6875 9.20002 5.73438 9.20002 7.03125C9.20002 8.32812 10.2274 9.375 11.5 9.375C12.7727 9.375 13.8 8.32812 13.8 7.03125C13.8 5.73438 12.7727 4.6875 11.5 4.6875Z" fill="white"/>
<path d="M20.7 17.1875C20.2707 17.1875 19.9333 16.8438 19.9333 16.4062C19.9333 15.9688 20.2707 15.625 20.7 15.625C21.1293 15.625 21.4667 15.2812 21.4667 14.8438C21.4667 13.8077 21.0628 12.8142 20.3439 12.0816C19.625 11.3491 18.65 10.9375 17.6333 10.9375H16.1C15.6707 10.9375 15.3333 10.5938 15.3333 10.1562C15.3333 9.71875 15.6707 9.375 16.1 9.375C17.3727 9.375 18.4 8.32812 18.4 7.03125C18.4 5.73438 17.3727 4.6875 16.1 4.6875C15.6707 4.6875 15.3333 4.34375 15.3333 3.90625C15.3333 3.46875 15.6707 3.125 16.1 3.125C17.1167 3.125 18.0917 3.53655 18.8106 4.26911C19.5295 5.00168 19.9333 5.99525 19.9333 7.03125C19.9333 8 19.596 8.875 19.0133 9.5625C21.298 10.1875 23 12.3125 23 14.8438C23 16.1406 21.9727 17.1875 20.7 17.1875ZM2.3 17.1875C1.02733 17.1875 0 16.1406 0 14.8438C0 12.3125 1.68667 10.1875 3.98667 9.5625C3.41933 8.875 3.06667 8 3.06667 7.03125C3.06667 5.99525 3.47053 5.00168 4.18942 4.26911C4.90831 3.53655 5.88334 3.125 6.9 3.125C7.32933 3.125 7.66667 3.46875 7.66667 3.90625C7.66667 4.34375 7.32933 4.6875 6.9 4.6875C5.62733 4.6875 4.6 5.73438 4.6 7.03125C4.6 8.32812 5.62733 9.375 6.9 9.375C7.32933 9.375 7.66667 9.71875 7.66667 10.1562C7.66667 10.5938 7.32933 10.9375 6.9 10.9375H5.36667C4.35 10.9375 3.37498 11.3491 2.65609 12.0816C1.9372 12.8142 1.53333 13.8077 1.53333 14.8438C1.53333 15.2812 1.87067 15.625 2.3 15.625C2.72933 15.625 3.06667 15.9688 3.06667 16.4062C3.06667 16.8438 2.72933 17.1875 2.3 17.1875ZM16.1 21.875H6.9C5.62733 21.875 4.6 20.8281 4.6 19.5312V17.9688C4.6 14.9531 7.00733 12.5 9.96667 12.5H13.0333C15.9927 12.5 18.4 14.9531 18.4 17.9688V19.5312C18.4 20.8281 17.3727 21.875 16.1 21.875ZM9.96667 14.0625C8.95 14.0625 7.97498 14.4741 7.25609 15.2066C6.5372 15.9392 6.13333 16.9327 6.13333 17.9688V19.5312C6.13333 19.9688 6.47067 20.3125 6.9 20.3125H16.1C16.5293 20.3125 16.8667 19.9688 16.8667 19.5312V17.9688C16.8667 16.9327 16.4628 15.9392 15.7439 15.2066C15.025 14.4741 14.05 14.0625 13.0333 14.0625H9.96667Z" fill="white"/>
</svg>
